G75*
G70*
%OFA0B0*%
%FSLAX24Y24*%
%IPPOS*%
%LPD*%
%AMOC8*
5,1,8,0,0,1.08239X$1,0.0*
%
%ADD10C,0.0000*%
%ADD11C,0.0591*%
%ADD12C,0.0531*%
%ADD13R,0.0512X0.0591*%
%ADD14R,0.0512X0.0630*%
%ADD15R,0.0630X0.0512*%
%ADD16R,0.0660X0.0660*%
%ADD17C,0.0660*%
%ADD18C,0.0240*%
%ADD19C,0.0436*%
%ADD20C,0.0160*%
%ADD21C,0.0120*%
D10*
X003680Y004186D02*
X003680Y031430D01*
X006436Y031430D01*
X006436Y033713D01*
X036357Y033713D01*
X036357Y031351D01*
X039113Y031351D01*
X039113Y004186D01*
X036680Y004186D01*
X036680Y001430D01*
X006436Y001430D01*
X006436Y004186D01*
X003680Y004186D01*
X027121Y004180D02*
X027123Y004195D01*
X027128Y004208D01*
X027137Y004220D01*
X027148Y004230D01*
X027162Y004236D01*
X027176Y004239D01*
X027191Y004238D01*
X027205Y004233D01*
X027218Y004225D01*
X027228Y004215D01*
X027235Y004202D01*
X027239Y004187D01*
X027239Y004173D01*
X027235Y004158D01*
X027228Y004145D01*
X027218Y004135D01*
X027205Y004127D01*
X027191Y004122D01*
X027176Y004121D01*
X027162Y004124D01*
X027148Y004130D01*
X027137Y004140D01*
X027128Y004152D01*
X027123Y004165D01*
X027121Y004180D01*
X027621Y004180D02*
X027623Y004195D01*
X027628Y004208D01*
X027637Y004220D01*
X027648Y004230D01*
X027662Y004236D01*
X027676Y004239D01*
X027691Y004238D01*
X027705Y004233D01*
X027718Y004225D01*
X027728Y004215D01*
X027735Y004202D01*
X027739Y004187D01*
X027739Y004173D01*
X027735Y004158D01*
X027728Y004145D01*
X027718Y004135D01*
X027705Y004127D01*
X027691Y004122D01*
X027676Y004121D01*
X027662Y004124D01*
X027648Y004130D01*
X027637Y004140D01*
X027628Y004152D01*
X027623Y004165D01*
X027621Y004180D01*
X028121Y004180D02*
X028123Y004195D01*
X028128Y004208D01*
X028137Y004220D01*
X028148Y004230D01*
X028162Y004236D01*
X028176Y004239D01*
X028191Y004238D01*
X028205Y004233D01*
X028218Y004225D01*
X028228Y004215D01*
X028235Y004202D01*
X028239Y004187D01*
X028239Y004173D01*
X028235Y004158D01*
X028228Y004145D01*
X028218Y004135D01*
X028205Y004127D01*
X028191Y004122D01*
X028176Y004121D01*
X028162Y004124D01*
X028148Y004130D01*
X028137Y004140D01*
X028128Y004152D01*
X028123Y004165D01*
X028121Y004180D01*
X028121Y004680D02*
X028123Y004695D01*
X028128Y004708D01*
X028137Y004720D01*
X028148Y004730D01*
X028162Y004736D01*
X028176Y004739D01*
X028191Y004738D01*
X028205Y004733D01*
X028218Y004725D01*
X028228Y004715D01*
X028235Y004702D01*
X028239Y004687D01*
X028239Y004673D01*
X028235Y004658D01*
X028228Y004645D01*
X028218Y004635D01*
X028205Y004627D01*
X028191Y004622D01*
X028176Y004621D01*
X028162Y004624D01*
X028148Y004630D01*
X028137Y004640D01*
X028128Y004652D01*
X028123Y004665D01*
X028121Y004680D01*
X027621Y004680D02*
X027623Y004695D01*
X027628Y004708D01*
X027637Y004720D01*
X027648Y004730D01*
X027662Y004736D01*
X027676Y004739D01*
X027691Y004738D01*
X027705Y004733D01*
X027718Y004725D01*
X027728Y004715D01*
X027735Y004702D01*
X027739Y004687D01*
X027739Y004673D01*
X027735Y004658D01*
X027728Y004645D01*
X027718Y004635D01*
X027705Y004627D01*
X027691Y004622D01*
X027676Y004621D01*
X027662Y004624D01*
X027648Y004630D01*
X027637Y004640D01*
X027628Y004652D01*
X027623Y004665D01*
X027621Y004680D01*
X027121Y004680D02*
X027123Y004695D01*
X027128Y004708D01*
X027137Y004720D01*
X027148Y004730D01*
X027162Y004736D01*
X027176Y004739D01*
X027191Y004738D01*
X027205Y004733D01*
X027218Y004725D01*
X027228Y004715D01*
X027235Y004702D01*
X027239Y004687D01*
X027239Y004673D01*
X027235Y004658D01*
X027228Y004645D01*
X027218Y004635D01*
X027205Y004627D01*
X027191Y004622D01*
X027176Y004621D01*
X027162Y004624D01*
X027148Y004630D01*
X027137Y004640D01*
X027128Y004652D01*
X027123Y004665D01*
X027121Y004680D01*
X027121Y005180D02*
X027123Y005195D01*
X027128Y005208D01*
X027137Y005220D01*
X027148Y005230D01*
X027162Y005236D01*
X027176Y005239D01*
X027191Y005238D01*
X027205Y005233D01*
X027218Y005225D01*
X027228Y005215D01*
X027235Y005202D01*
X027239Y005187D01*
X027239Y005173D01*
X027235Y005158D01*
X027228Y005145D01*
X027218Y005135D01*
X027205Y005127D01*
X027191Y005122D01*
X027176Y005121D01*
X027162Y005124D01*
X027148Y005130D01*
X027137Y005140D01*
X027128Y005152D01*
X027123Y005165D01*
X027121Y005180D01*
X027121Y005680D02*
X027123Y005695D01*
X027128Y005708D01*
X027137Y005720D01*
X027148Y005730D01*
X027162Y005736D01*
X027176Y005739D01*
X027191Y005738D01*
X027205Y005733D01*
X027218Y005725D01*
X027228Y005715D01*
X027235Y005702D01*
X027239Y005687D01*
X027239Y005673D01*
X027235Y005658D01*
X027228Y005645D01*
X027218Y005635D01*
X027205Y005627D01*
X027191Y005622D01*
X027176Y005621D01*
X027162Y005624D01*
X027148Y005630D01*
X027137Y005640D01*
X027128Y005652D01*
X027123Y005665D01*
X027121Y005680D01*
X027621Y005680D02*
X027623Y005695D01*
X027628Y005708D01*
X027637Y005720D01*
X027648Y005730D01*
X027662Y005736D01*
X027676Y005739D01*
X027691Y005738D01*
X027705Y005733D01*
X027718Y005725D01*
X027728Y005715D01*
X027735Y005702D01*
X027739Y005687D01*
X027739Y005673D01*
X027735Y005658D01*
X027728Y005645D01*
X027718Y005635D01*
X027705Y005627D01*
X027691Y005622D01*
X027676Y005621D01*
X027662Y005624D01*
X027648Y005630D01*
X027637Y005640D01*
X027628Y005652D01*
X027623Y005665D01*
X027621Y005680D01*
X027621Y005180D02*
X027623Y005195D01*
X027628Y005208D01*
X027637Y005220D01*
X027648Y005230D01*
X027662Y005236D01*
X027676Y005239D01*
X027691Y005238D01*
X027705Y005233D01*
X027718Y005225D01*
X027728Y005215D01*
X027735Y005202D01*
X027739Y005187D01*
X027739Y005173D01*
X027735Y005158D01*
X027728Y005145D01*
X027718Y005135D01*
X027705Y005127D01*
X027691Y005122D01*
X027676Y005121D01*
X027662Y005124D01*
X027648Y005130D01*
X027637Y005140D01*
X027628Y005152D01*
X027623Y005165D01*
X027621Y005180D01*
X028121Y005180D02*
X028123Y005195D01*
X028128Y005208D01*
X028137Y005220D01*
X028148Y005230D01*
X028162Y005236D01*
X028176Y005239D01*
X028191Y005238D01*
X028205Y005233D01*
X028218Y005225D01*
X028228Y005215D01*
X028235Y005202D01*
X028239Y005187D01*
X028239Y005173D01*
X028235Y005158D01*
X028228Y005145D01*
X028218Y005135D01*
X028205Y005127D01*
X028191Y005122D01*
X028176Y005121D01*
X028162Y005124D01*
X028148Y005130D01*
X028137Y005140D01*
X028128Y005152D01*
X028123Y005165D01*
X028121Y005180D01*
X028121Y005680D02*
X028123Y005695D01*
X028128Y005708D01*
X028137Y005720D01*
X028148Y005730D01*
X028162Y005736D01*
X028176Y005739D01*
X028191Y005738D01*
X028205Y005733D01*
X028218Y005725D01*
X028228Y005715D01*
X028235Y005702D01*
X028239Y005687D01*
X028239Y005673D01*
X028235Y005658D01*
X028228Y005645D01*
X028218Y005635D01*
X028205Y005627D01*
X028191Y005622D01*
X028176Y005621D01*
X028162Y005624D01*
X028148Y005630D01*
X028137Y005640D01*
X028128Y005652D01*
X028123Y005665D01*
X028121Y005680D01*
X028121Y006180D02*
X028123Y006195D01*
X028128Y006208D01*
X028137Y006220D01*
X028148Y006230D01*
X028162Y006236D01*
X028176Y006239D01*
X028191Y006238D01*
X028205Y006233D01*
X028218Y006225D01*
X028228Y006215D01*
X028235Y006202D01*
X028239Y006187D01*
X028239Y006173D01*
X028235Y006158D01*
X028228Y006145D01*
X028218Y006135D01*
X028205Y006127D01*
X028191Y006122D01*
X028176Y006121D01*
X028162Y006124D01*
X028148Y006130D01*
X028137Y006140D01*
X028128Y006152D01*
X028123Y006165D01*
X028121Y006180D01*
X027621Y006180D02*
X027623Y006195D01*
X027628Y006208D01*
X027637Y006220D01*
X027648Y006230D01*
X027662Y006236D01*
X027676Y006239D01*
X027691Y006238D01*
X027705Y006233D01*
X027718Y006225D01*
X027728Y006215D01*
X027735Y006202D01*
X027739Y006187D01*
X027739Y006173D01*
X027735Y006158D01*
X027728Y006145D01*
X027718Y006135D01*
X027705Y006127D01*
X027691Y006122D01*
X027676Y006121D01*
X027662Y006124D01*
X027648Y006130D01*
X027637Y006140D01*
X027628Y006152D01*
X027623Y006165D01*
X027621Y006180D01*
X027121Y006180D02*
X027123Y006195D01*
X027128Y006208D01*
X027137Y006220D01*
X027148Y006230D01*
X027162Y006236D01*
X027176Y006239D01*
X027191Y006238D01*
X027205Y006233D01*
X027218Y006225D01*
X027228Y006215D01*
X027235Y006202D01*
X027239Y006187D01*
X027239Y006173D01*
X027235Y006158D01*
X027228Y006145D01*
X027218Y006135D01*
X027205Y006127D01*
X027191Y006122D01*
X027176Y006121D01*
X027162Y006124D01*
X027148Y006130D01*
X027137Y006140D01*
X027128Y006152D01*
X027123Y006165D01*
X027121Y006180D01*
D11*
X033760Y005930D02*
X034350Y005930D01*
X034350Y004930D02*
X033760Y004930D01*
X020180Y003225D02*
X020180Y002635D01*
X019180Y002635D02*
X019180Y003225D01*
D12*
X032430Y002680D03*
X033430Y002680D03*
X034430Y002680D03*
D13*
X034304Y003680D03*
X033556Y003680D03*
X014454Y017580D03*
X013706Y017580D03*
X013706Y018430D03*
X014454Y018430D03*
X014479Y020030D03*
X013731Y020030D03*
D14*
X013706Y019180D03*
X014454Y019180D03*
X012829Y018355D03*
X012081Y018355D03*
X012081Y017505D03*
X012829Y017505D03*
X012829Y020030D03*
X012081Y020030D03*
X013731Y020955D03*
X014479Y020955D03*
D15*
X019705Y016954D03*
X019705Y016206D03*
D16*
X037180Y017680D03*
D17*
X038180Y017680D03*
X038180Y016680D03*
X037180Y016680D03*
X037180Y015680D03*
X038180Y015680D03*
X038180Y014680D03*
X038180Y013680D03*
X037180Y013680D03*
X037180Y014680D03*
X037180Y012680D03*
X038180Y012680D03*
X038180Y011680D03*
X037180Y011680D03*
X037180Y010680D03*
X038180Y010680D03*
X038180Y009680D03*
X038180Y008680D03*
X037180Y008680D03*
X037180Y009680D03*
X037180Y007680D03*
X038180Y007680D03*
X038180Y006680D03*
X037180Y006680D03*
X037180Y005680D03*
X038180Y005680D03*
D18*
X034304Y003680D02*
X034430Y003304D01*
X034430Y002680D01*
X033556Y003680D02*
X033180Y003680D01*
X032930Y003430D01*
D19*
X032930Y003430D03*
X031930Y003430D03*
X031430Y003930D03*
X030055Y004180D03*
X028180Y003555D03*
X026180Y003180D03*
X024554Y004554D03*
X025555Y005055D03*
X025555Y006080D03*
X025930Y011430D03*
X022805Y016305D03*
X022805Y017180D03*
X021430Y018055D03*
X022930Y019305D03*
X022305Y019555D03*
X023430Y020805D03*
X023430Y021680D03*
X024055Y024055D03*
X023430Y024680D03*
X020180Y022180D03*
X019930Y023180D03*
X016805Y021055D03*
X016055Y021055D03*
X015430Y020930D03*
X015430Y020055D03*
X015430Y019430D03*
X015430Y018805D03*
X015430Y018180D03*
X015430Y017555D03*
X014305Y014305D03*
X019680Y015430D03*
X020055Y017680D03*
X027680Y021430D03*
X028680Y022180D03*
X030930Y017930D03*
X031930Y015180D03*
X035055Y003305D03*
X011930Y021180D03*
X011430Y020180D03*
X029180Y028930D03*
D20*
X029430Y020430D01*
X027680Y019180D01*
X027680Y018680D01*
X022805Y017180D01*
X023170Y017020D02*
X027719Y018420D01*
X027732Y018420D01*
X027768Y018435D01*
X027806Y018447D01*
X027816Y018455D01*
X027827Y018460D01*
X027855Y018487D01*
X027886Y018513D01*
X027891Y018524D01*
X027900Y018533D01*
X027916Y018569D01*
X027934Y018604D01*
X027935Y018617D01*
X027940Y018628D01*
X027940Y018668D01*
X027944Y018707D01*
X027940Y018719D01*
X027940Y019046D01*
X029560Y020203D01*
X029584Y020214D01*
X029602Y020233D01*
X029623Y020248D01*
X029637Y020270D01*
X029655Y020289D01*
X029664Y020314D01*
X029678Y020336D01*
X029682Y020362D01*
X029691Y020386D01*
X029691Y020412D01*
X029695Y020438D01*
X029689Y020463D01*
X029449Y028636D01*
X029518Y028704D01*
X029578Y028851D01*
X029578Y029009D01*
X038833Y029009D01*
X038833Y028851D02*
X029578Y028851D01*
X029578Y029009D02*
X029518Y029156D01*
X029406Y029268D01*
X029259Y029328D01*
X029101Y029328D01*
X028954Y029268D01*
X028842Y029156D01*
X028782Y029009D01*
X003960Y029009D01*
X003960Y028851D02*
X028782Y028851D01*
X028842Y028704D01*
X028929Y028618D01*
X029166Y020561D01*
X027553Y019409D01*
X027533Y019400D01*
X027511Y019379D01*
X027487Y019362D01*
X027475Y019343D01*
X027460Y019327D01*
X027448Y019299D01*
X027432Y019274D01*
X027428Y019252D01*
X027420Y019232D01*
X027420Y019202D01*
X027415Y019172D01*
X027420Y019150D01*
X027420Y018872D01*
X023025Y017520D01*
X022884Y017578D01*
X022726Y017578D01*
X022579Y017518D01*
X022565Y017503D01*
X022565Y018572D01*
X022900Y018907D01*
X023009Y018907D01*
X023156Y018967D01*
X023268Y019079D01*
X023328Y019226D01*
X023328Y019384D01*
X023268Y019531D01*
X023156Y019643D01*
X023009Y019703D01*
X022851Y019703D01*
X022704Y019643D01*
X022701Y019639D01*
X022643Y019781D01*
X022565Y019858D01*
X022565Y020222D01*
X022663Y020320D01*
X023327Y020320D01*
X023375Y020319D01*
X023378Y020320D01*
X023382Y020320D01*
X023426Y020339D01*
X023472Y020356D01*
X023474Y020358D01*
X023477Y020360D01*
X023511Y020394D01*
X023538Y020419D01*
X023656Y020467D01*
X023768Y020579D01*
X023828Y020726D01*
X023828Y020884D01*
X023768Y021031D01*
X023690Y021108D01*
X023690Y021377D01*
X023768Y021454D01*
X023828Y021601D01*
X023828Y021664D01*
X024210Y021283D01*
X024283Y021210D01*
X024378Y021170D01*
X027377Y021170D01*
X027454Y021092D01*
X027601Y021032D01*
X027759Y021032D01*
X027906Y021092D01*
X028018Y021204D01*
X028078Y021351D01*
X028078Y021509D01*
X028018Y021656D01*
X027906Y021768D01*
X027759Y021828D01*
X027601Y021828D01*
X027454Y021768D01*
X027377Y021690D01*
X024538Y021690D01*
X023690Y022538D01*
X023690Y023896D01*
X023717Y023829D01*
X023829Y023717D01*
X023976Y023657D01*
X024134Y023657D01*
X024281Y023717D01*
X024358Y023795D01*
X026577Y023795D01*
X028282Y022197D01*
X028282Y022101D01*
X028342Y021954D01*
X028454Y021842D01*
X028601Y021782D01*
X028759Y021782D01*
X028906Y021842D01*
X029018Y021954D01*
X029078Y022101D01*
X029078Y022259D01*
X029018Y022406D01*
X028906Y022518D01*
X028759Y022578D01*
X028635Y022578D01*
X026861Y024242D01*
X026827Y024275D01*
X026823Y024277D01*
X026820Y024280D01*
X026776Y024297D01*
X026732Y024315D01*
X026727Y024315D01*
X026723Y024317D01*
X026676Y024315D01*
X024358Y024315D01*
X024281Y024393D01*
X024134Y024453D01*
X023976Y024453D01*
X023829Y024393D01*
X023717Y024281D01*
X023690Y024214D01*
X023690Y024377D01*
X023768Y024454D01*
X023828Y024601D01*
X023828Y024759D01*
X023768Y024906D01*
X023656Y025018D01*
X023509Y025078D01*
X023351Y025078D01*
X023204Y025018D01*
X023092Y024906D01*
X023032Y024759D01*
X023032Y024601D01*
X023092Y024454D01*
X023170Y024377D01*
X023170Y022378D01*
X023210Y022283D01*
X023414Y022078D01*
X023351Y022078D01*
X023204Y022018D01*
X023092Y021906D01*
X023032Y021759D01*
X023032Y021601D01*
X023092Y021454D01*
X023170Y021377D01*
X023170Y021108D01*
X023092Y021031D01*
X023032Y020884D01*
X023032Y020840D01*
X022503Y020840D01*
X022408Y020800D01*
X022335Y020727D01*
X022158Y020550D01*
X022085Y020477D01*
X022045Y020382D01*
X022045Y019858D01*
X021967Y019781D01*
X021907Y019634D01*
X021907Y019525D01*
X021710Y019327D01*
X021670Y019232D01*
X021670Y018378D01*
X021656Y018393D01*
X021509Y018453D01*
X021400Y018453D01*
X021202Y018650D01*
X021107Y018690D01*
X020163Y018690D01*
X019622Y019230D01*
X019597Y019261D01*
X019586Y019267D01*
X019577Y019275D01*
X019541Y019291D01*
X019506Y019309D01*
X019493Y019310D01*
X019482Y019315D01*
X019442Y019315D01*
X015763Y019660D01*
X015681Y019743D01*
X015768Y019829D01*
X015828Y019976D01*
X015828Y020134D01*
X015768Y020281D01*
X015656Y020393D01*
X015509Y020453D01*
X015351Y020453D01*
X015204Y020393D01*
X015092Y020281D01*
X015055Y020190D01*
X014915Y020190D01*
X014915Y020400D01*
X014832Y020483D01*
X014915Y020565D01*
X014915Y020670D01*
X015127Y020670D01*
X015204Y020592D01*
X015351Y020532D01*
X015509Y020532D01*
X015656Y020592D01*
X015768Y020704D01*
X015789Y020758D01*
X015829Y020717D01*
X015976Y020657D01*
X016134Y020657D01*
X016281Y020717D01*
X016393Y020829D01*
X016430Y020920D01*
X016467Y020829D01*
X016579Y020717D01*
X016726Y020657D01*
X016884Y020657D01*
X017031Y020717D01*
X017143Y020829D01*
X017203Y020976D01*
X017203Y021134D01*
X017143Y021281D01*
X017065Y021358D01*
X017065Y021447D01*
X017288Y021670D01*
X019982Y021670D01*
X020077Y021710D01*
X020150Y021782D01*
X020259Y021782D01*
X020406Y021842D01*
X020518Y021954D01*
X020578Y022101D01*
X020578Y022259D01*
X020518Y022406D01*
X020406Y022518D01*
X020259Y022578D01*
X020101Y022578D01*
X019954Y022518D01*
X019842Y022406D01*
X019782Y022259D01*
X019782Y022190D01*
X019280Y022190D01*
X019327Y022210D01*
X019900Y022782D01*
X020009Y022782D01*
X020156Y022842D01*
X020268Y022954D01*
X020328Y023101D01*
X020328Y023259D01*
X020268Y023406D01*
X020156Y023518D01*
X020009Y023578D01*
X019851Y023578D01*
X019704Y023518D01*
X019592Y023406D01*
X019532Y023259D01*
X019532Y023150D01*
X019072Y022690D01*
X016628Y022690D01*
X016533Y022650D01*
X016460Y022577D01*
X015835Y021952D01*
X015795Y021857D01*
X015795Y021358D01*
X015717Y021281D01*
X015696Y021227D01*
X015656Y021268D01*
X015509Y021328D01*
X015351Y021328D01*
X015204Y021268D01*
X015127Y021190D01*
X014915Y021190D01*
X014915Y021345D01*
X014809Y021450D01*
X014149Y021450D01*
X014105Y021406D01*
X014061Y021450D01*
X013401Y021450D01*
X013295Y021345D01*
X013295Y021215D01*
X012328Y021215D01*
X012328Y021259D01*
X012268Y021406D01*
X012156Y021518D01*
X012009Y021578D01*
X011851Y021578D01*
X011704Y021518D01*
X011592Y021406D01*
X011532Y021259D01*
X011532Y021101D01*
X011592Y020954D01*
X011704Y020842D01*
X011851Y020782D01*
X011960Y020782D01*
X012008Y020735D01*
X012103Y020695D01*
X013295Y020695D01*
X013295Y020565D01*
X013378Y020483D01*
X013295Y020400D01*
X013295Y020290D01*
X013265Y020290D01*
X013265Y020420D01*
X013159Y020525D01*
X012499Y020525D01*
X012441Y020467D01*
X012435Y020473D01*
X012399Y020494D01*
X012358Y020505D01*
X012129Y020505D01*
X012129Y020078D01*
X012033Y020078D01*
X012033Y020505D01*
X011804Y020505D01*
X011763Y020494D01*
X011727Y020473D01*
X011697Y020443D01*
X011676Y020407D01*
X011665Y020366D01*
X011665Y020078D01*
X012033Y020078D01*
X012033Y019982D01*
X012129Y019982D01*
X012129Y019555D01*
X012358Y019555D01*
X012399Y019566D01*
X012435Y019587D01*
X012441Y019593D01*
X012499Y019535D01*
X013159Y019535D01*
X013265Y019640D01*
X013265Y019770D01*
X013295Y019770D01*
X013295Y019660D01*
X013328Y019627D01*
X013270Y019570D01*
X013270Y018690D01*
X013265Y018690D01*
X013265Y018745D01*
X013159Y018850D01*
X012499Y018850D01*
X012441Y018792D01*
X012435Y018798D01*
X012399Y018819D01*
X012358Y018830D01*
X012129Y018830D01*
X012129Y018403D01*
X012033Y018403D01*
X012033Y018830D01*
X011804Y018830D01*
X011763Y018819D01*
X011727Y018798D01*
X011697Y018768D01*
X011676Y018732D01*
X011665Y018691D01*
X011665Y018403D01*
X012033Y018403D01*
X012033Y018307D01*
X012129Y018307D01*
X012129Y017553D01*
X012033Y017553D01*
X012033Y017880D01*
X012033Y018307D01*
X011665Y018307D01*
X011665Y018019D01*
X011676Y017978D01*
X011697Y017942D01*
X011709Y017930D01*
X011697Y017918D01*
X011676Y017882D01*
X011665Y017841D01*
X011665Y017553D01*
X012033Y017553D01*
X012033Y017457D01*
X012129Y017457D01*
X012129Y017030D01*
X012358Y017030D01*
X012399Y017041D01*
X012435Y017062D01*
X012441Y017068D01*
X012499Y017010D01*
X013159Y017010D01*
X013265Y017115D01*
X013265Y017320D01*
X013270Y017320D01*
X013270Y017210D01*
X013376Y017105D01*
X014036Y017105D01*
X014080Y017148D01*
X014124Y017105D01*
X014194Y017105D01*
X014194Y014690D01*
X014079Y014643D01*
X013967Y014531D01*
X013907Y014384D01*
X013907Y014226D01*
X013967Y014079D01*
X014079Y013967D01*
X014226Y013907D01*
X014384Y013907D01*
X014531Y013967D01*
X014643Y014079D01*
X014703Y014226D01*
X014703Y014376D01*
X014714Y014402D01*
X014714Y017105D01*
X014784Y017105D01*
X014890Y017210D01*
X014890Y017920D01*
X015127Y017920D01*
X015179Y017867D01*
X015092Y017781D01*
X015032Y017634D01*
X015032Y017476D01*
X015092Y017329D01*
X015204Y017217D01*
X015289Y017183D01*
X017183Y011974D01*
X017195Y011933D01*
X017200Y011926D01*
X017203Y011918D01*
X017232Y011886D01*
X017704Y011296D01*
X017710Y011283D01*
X017736Y011256D01*
X017759Y011227D01*
X017772Y011220D01*
X017783Y011210D01*
X017817Y011195D01*
X017850Y011177D01*
X017865Y011176D01*
X017878Y011170D01*
X017916Y011170D01*
X017953Y011166D01*
X017967Y011170D01*
X025627Y011170D01*
X025704Y011092D01*
X025851Y011032D01*
X026009Y011032D01*
X026156Y011092D01*
X026268Y011204D01*
X026328Y011351D01*
X026328Y011509D01*
X026268Y011656D01*
X026156Y011768D01*
X026009Y011828D01*
X025851Y011828D01*
X025704Y011768D01*
X025627Y011690D01*
X018055Y011690D01*
X017660Y012184D01*
X015779Y017357D01*
X015828Y017476D01*
X015828Y017634D01*
X015768Y017781D01*
X015681Y017867D01*
X015768Y017954D01*
X015828Y018101D01*
X015828Y018259D01*
X015768Y018406D01*
X015681Y018493D01*
X015768Y018579D01*
X015828Y018726D01*
X015828Y018884D01*
X015768Y019031D01*
X015681Y019118D01*
X015706Y019143D01*
X019312Y018805D01*
X019835Y018283D01*
X019908Y018210D01*
X020003Y018170D01*
X020947Y018170D01*
X021032Y018085D01*
X021032Y017976D01*
X021092Y017829D01*
X021204Y017717D01*
X021351Y017657D01*
X021509Y017657D01*
X021656Y017717D01*
X021670Y017732D01*
X021670Y017663D01*
X021572Y017565D01*
X020538Y017565D01*
X020453Y017650D01*
X020453Y017759D01*
X020393Y017906D01*
X020281Y018018D01*
X020134Y018078D01*
X019976Y018078D01*
X019829Y018018D01*
X019752Y017940D01*
X018878Y017940D01*
X018783Y017900D01*
X018533Y017650D01*
X018460Y017577D01*
X018420Y017482D01*
X018420Y015628D01*
X018460Y015533D01*
X018710Y015283D01*
X018783Y015210D01*
X018878Y015170D01*
X019377Y015170D01*
X019454Y015092D01*
X019601Y015032D01*
X019759Y015032D01*
X019906Y015092D01*
X020018Y015204D01*
X020078Y015351D01*
X020078Y015509D01*
X020018Y015656D01*
X019990Y015683D01*
X019990Y015770D01*
X020095Y015770D01*
X020200Y015876D01*
X020200Y016536D01*
X020156Y016580D01*
X020200Y016624D01*
X020200Y016670D01*
X021982Y016670D01*
X022077Y016710D01*
X022150Y016783D01*
X022425Y017057D01*
X022467Y016954D01*
X022579Y016842D01*
X022726Y016782D01*
X022884Y016782D01*
X022935Y016803D01*
X022835Y016703D01*
X022726Y016703D01*
X022579Y016643D01*
X022467Y016531D01*
X022407Y016384D01*
X022407Y016226D01*
X022467Y016079D01*
X022579Y015967D01*
X022726Y015907D01*
X022884Y015907D01*
X023031Y015967D01*
X023143Y016079D01*
X023203Y016226D01*
X023203Y016335D01*
X023288Y016420D01*
X029893Y016420D01*
X029907Y016416D01*
X029944Y016420D01*
X029982Y016420D01*
X029995Y016426D01*
X030010Y016427D01*
X030043Y016445D01*
X030077Y016460D01*
X030088Y016470D01*
X030101Y016477D01*
X030124Y016506D01*
X030150Y016533D01*
X030156Y016546D01*
X030944Y017532D01*
X031009Y017532D01*
X031156Y017592D01*
X031268Y017704D01*
X031328Y017851D01*
X031328Y018009D01*
X031268Y018156D01*
X031156Y018268D01*
X031009Y018328D01*
X030851Y018328D01*
X030704Y018268D01*
X030592Y018156D01*
X030532Y018009D01*
X030532Y017851D01*
X030533Y017849D01*
X029805Y016940D01*
X023128Y016940D01*
X023143Y016954D01*
X023170Y017020D01*
X023146Y016963D02*
X029823Y016963D01*
X029950Y017122D02*
X023499Y017122D01*
X023128Y016940D02*
X023128Y016940D01*
X023180Y016680D02*
X029930Y016680D01*
X030930Y017930D01*
X030558Y018073D02*
X026590Y018073D01*
X026367Y018548D02*
X022565Y018548D01*
X022565Y018390D02*
X025852Y018390D01*
X025337Y018231D02*
X022565Y018231D01*
X022565Y018073D02*
X024822Y018073D01*
X025044Y017597D02*
X030331Y017597D01*
X030457Y017756D02*
X025560Y017756D01*
X026075Y017914D02*
X030532Y017914D01*
X030668Y018231D02*
X027105Y018231D01*
X027620Y018390D02*
X038833Y018390D01*
X038833Y018548D02*
X027907Y018548D01*
X027944Y018707D02*
X038833Y018707D01*
X038833Y018865D02*
X027940Y018865D01*
X027940Y019024D02*
X038833Y019024D01*
X038833Y019182D02*
X028130Y019182D01*
X028352Y019341D02*
X038833Y019341D01*
X038833Y019499D02*
X028574Y019499D01*
X028796Y019658D02*
X038833Y019658D01*
X038833Y019816D02*
X029018Y019816D01*
X029240Y019975D02*
X038833Y019975D01*
X038833Y020133D02*
X029462Y020133D01*
X029656Y020292D02*
X038833Y020292D01*
X038833Y020450D02*
X029692Y020450D01*
X029685Y020609D02*
X038833Y020609D01*
X038833Y020767D02*
X029680Y020767D01*
X029676Y020926D02*
X038833Y020926D01*
X038833Y021084D02*
X029671Y021084D01*
X029666Y021243D02*
X038833Y021243D01*
X038833Y021401D02*
X029662Y021401D01*
X029657Y021560D02*
X038833Y021560D01*
X038833Y021718D02*
X029652Y021718D01*
X029648Y021877D02*
X038833Y021877D01*
X038833Y022035D02*
X029643Y022035D01*
X029638Y022194D02*
X038833Y022194D01*
X038833Y022352D02*
X029634Y022352D01*
X029629Y022511D02*
X038833Y022511D01*
X038833Y022669D02*
X029624Y022669D01*
X029620Y022828D02*
X038833Y022828D01*
X038833Y022986D02*
X029615Y022986D01*
X029610Y023145D02*
X038833Y023145D01*
X038833Y023303D02*
X029606Y023303D01*
X029601Y023462D02*
X038833Y023462D01*
X038833Y023620D02*
X029596Y023620D01*
X029592Y023779D02*
X038833Y023779D01*
X038833Y023937D02*
X029587Y023937D01*
X029582Y024096D02*
X038833Y024096D01*
X038833Y024254D02*
X029578Y024254D01*
X029573Y024413D02*
X038833Y024413D01*
X038833Y024571D02*
X029568Y024571D01*
X029564Y024730D02*
X038833Y024730D01*
X038833Y024888D02*
X029559Y024888D01*
X029554Y025047D02*
X038833Y025047D01*
X038833Y025205D02*
X029550Y025205D01*
X029545Y025364D02*
X038833Y025364D01*
X038833Y025522D02*
X029540Y025522D01*
X029536Y025681D02*
X038833Y025681D01*
X038833Y025839D02*
X029531Y025839D01*
X029526Y025998D02*
X038833Y025998D01*
X038833Y026156D02*
X029522Y026156D01*
X029517Y026315D02*
X038833Y026315D01*
X038833Y026473D02*
X029512Y026473D01*
X029508Y026632D02*
X038833Y026632D01*
X038833Y026790D02*
X029503Y026790D01*
X029498Y026949D02*
X038833Y026949D01*
X038833Y027107D02*
X029494Y027107D01*
X029489Y027266D02*
X038833Y027266D01*
X038833Y027424D02*
X029484Y027424D01*
X029480Y027583D02*
X038833Y027583D01*
X038833Y027741D02*
X029475Y027741D01*
X029470Y027900D02*
X038833Y027900D01*
X038833Y028058D02*
X029466Y028058D01*
X029461Y028217D02*
X038833Y028217D01*
X038833Y028375D02*
X029456Y028375D01*
X029452Y028534D02*
X038833Y028534D01*
X038833Y028692D02*
X029505Y028692D01*
X029505Y029168D02*
X038833Y029168D01*
X038833Y029326D02*
X029264Y029326D01*
X029096Y029326D02*
X003960Y029326D01*
X003960Y029168D02*
X028855Y029168D01*
X028782Y029009D02*
X028782Y028851D01*
X028855Y028692D02*
X003960Y028692D01*
X003960Y028534D02*
X028932Y028534D01*
X028936Y028375D02*
X003960Y028375D01*
X003960Y028217D02*
X028941Y028217D01*
X028946Y028058D02*
X003960Y028058D01*
X003960Y027900D02*
X028950Y027900D01*
X028955Y027741D02*
X003960Y027741D01*
X003960Y027583D02*
X028960Y027583D01*
X028964Y027424D02*
X003960Y027424D01*
X003960Y027266D02*
X028969Y027266D01*
X028974Y027107D02*
X003960Y027107D01*
X003960Y026949D02*
X028978Y026949D01*
X028983Y026790D02*
X003960Y026790D01*
X003960Y026632D02*
X028987Y026632D01*
X028992Y026473D02*
X003960Y026473D01*
X003960Y026315D02*
X028997Y026315D01*
X029001Y026156D02*
X003960Y026156D01*
X003960Y025998D02*
X029006Y025998D01*
X029011Y025839D02*
X003960Y025839D01*
X003960Y025681D02*
X029015Y025681D01*
X029020Y025522D02*
X003960Y025522D01*
X003960Y025364D02*
X029025Y025364D01*
X029029Y025205D02*
X003960Y025205D01*
X003960Y025047D02*
X023275Y025047D01*
X023085Y024888D02*
X003960Y024888D01*
X003960Y024730D02*
X023032Y024730D01*
X023044Y024571D02*
X003960Y024571D01*
X003960Y024413D02*
X023134Y024413D01*
X023170Y024254D02*
X003960Y024254D01*
X003960Y024096D02*
X023170Y024096D01*
X023170Y023937D02*
X003960Y023937D01*
X003960Y023779D02*
X023170Y023779D01*
X023170Y023620D02*
X003960Y023620D01*
X003960Y023462D02*
X019649Y023462D01*
X019550Y023303D02*
X003960Y023303D01*
X003960Y023145D02*
X019527Y023145D01*
X019368Y022986D02*
X003960Y022986D01*
X003960Y022828D02*
X019210Y022828D01*
X019180Y022430D02*
X019930Y023180D01*
X020211Y023462D02*
X023170Y023462D01*
X023170Y023303D02*
X020310Y023303D01*
X020328Y023145D02*
X023170Y023145D01*
X023170Y022986D02*
X020281Y022986D01*
X020119Y022828D02*
X023170Y022828D01*
X023170Y022669D02*
X019787Y022669D01*
X019628Y022511D02*
X019948Y022511D01*
X019820Y022352D02*
X019470Y022352D01*
X019289Y022194D02*
X019782Y022194D01*
X019930Y021930D02*
X020180Y022180D01*
X019930Y021930D02*
X017180Y021930D01*
X016805Y021555D01*
X016805Y021055D01*
X017080Y020767D02*
X022374Y020767D01*
X022216Y020609D02*
X015672Y020609D01*
X015517Y020450D02*
X022073Y020450D01*
X022158Y020550D02*
X022158Y020550D01*
X022305Y020330D02*
X022305Y019555D01*
X021930Y019180D01*
X021930Y017555D01*
X021680Y017305D01*
X020430Y017305D01*
X020055Y017680D01*
X018930Y017680D01*
X018680Y017430D01*
X018680Y015680D01*
X018930Y015430D01*
X019680Y015430D01*
X019730Y015480D01*
X019730Y016206D01*
X019680Y016156D01*
X019680Y015430D01*
X020067Y015537D02*
X031750Y015537D01*
X031704Y015518D02*
X031592Y015406D01*
X031532Y015259D01*
X031532Y015101D01*
X031592Y014954D01*
X031670Y014877D01*
X031670Y011628D01*
X031710Y011533D01*
X032210Y011033D01*
X032283Y010960D01*
X032378Y010920D01*
X036727Y010920D01*
X036670Y010781D01*
X036670Y010579D01*
X036748Y010391D01*
X036891Y010248D01*
X037079Y010170D01*
X037281Y010170D01*
X037469Y010248D01*
X037612Y010391D01*
X037680Y010554D01*
X037748Y010391D01*
X037891Y010248D01*
X038079Y010170D01*
X038281Y010170D01*
X038469Y010248D01*
X038612Y010391D01*
X038690Y010579D01*
X038690Y010781D01*
X038612Y010969D01*
X038469Y011112D01*
X038306Y011180D01*
X038469Y011248D01*
X038612Y011391D01*
X038690Y011579D01*
X038690Y011781D01*
X038612Y011969D01*
X038469Y012112D01*
X038306Y012180D01*
X038469Y012248D01*
X038612Y012391D01*
X038690Y012579D01*
X038690Y012781D01*
X038612Y012969D01*
X038469Y013112D01*
X038306Y013180D01*
X038469Y013248D01*
X038612Y013391D01*
X038690Y013579D01*
X038690Y013781D01*
X038612Y013969D01*
X038469Y014112D01*
X038306Y014180D01*
X038469Y014248D01*
X038612Y014391D01*
X038690Y014579D01*
X038690Y014781D01*
X038612Y014969D01*
X038469Y015112D01*
X038306Y015180D01*
X038469Y015248D01*
X038612Y015391D01*
X038690Y015579D01*
X038690Y015781D01*
X038612Y015969D01*
X038469Y016112D01*
X038306Y016180D01*
X038469Y016248D01*
X038612Y016391D01*
X038690Y016579D01*
X038690Y016781D01*
X038612Y016969D01*
X038469Y017112D01*
X038306Y017180D01*
X038469Y017248D01*
X038612Y017391D01*
X038690Y017579D01*
X038690Y017781D01*
X038612Y017969D01*
X038469Y018112D01*
X038281Y018190D01*
X038079Y018190D01*
X037891Y018112D01*
X037748Y017969D01*
X037690Y017830D01*
X037690Y018085D01*
X037585Y018190D01*
X036775Y018190D01*
X036670Y018085D01*
X036670Y017275D01*
X036775Y017170D01*
X037030Y017170D01*
X036891Y017112D01*
X036748Y016969D01*
X036670Y016781D01*
X036670Y016579D01*
X036748Y016391D01*
X036891Y016248D01*
X037054Y016180D01*
X036891Y016112D01*
X036748Y015969D01*
X036670Y015781D01*
X036670Y015579D01*
X036748Y015391D01*
X036891Y015248D01*
X037054Y015180D01*
X036891Y015112D01*
X036748Y014969D01*
X036670Y014781D01*
X036670Y014579D01*
X036748Y014391D01*
X036891Y014248D01*
X037054Y014180D01*
X036891Y014112D01*
X036748Y013969D01*
X036670Y013781D01*
X036670Y013579D01*
X036748Y013391D01*
X036891Y013248D01*
X037054Y013180D01*
X036891Y013112D01*
X036748Y012969D01*
X036670Y012781D01*
X036670Y012579D01*
X036748Y012391D01*
X036891Y012248D01*
X037054Y012180D01*
X036891Y012112D01*
X036748Y011969D01*
X036670Y011781D01*
X036670Y011579D01*
X036682Y011550D01*
X036572Y011440D01*
X032538Y011440D01*
X032190Y011788D01*
X032190Y014877D01*
X032268Y014954D01*
X032328Y015101D01*
X032328Y015259D01*
X032268Y015406D01*
X032156Y015518D01*
X032009Y015578D01*
X031851Y015578D01*
X031704Y015518D01*
X031581Y015378D02*
X020078Y015378D01*
X020024Y015220D02*
X031532Y015220D01*
X031548Y015061D02*
X019830Y015061D01*
X019530Y015061D02*
X016614Y015061D01*
X016671Y014903D02*
X031644Y014903D01*
X031670Y014744D02*
X016729Y014744D01*
X016786Y014586D02*
X031670Y014586D01*
X031670Y014427D02*
X016844Y014427D01*
X016902Y014269D02*
X031670Y014269D01*
X031670Y014110D02*
X016959Y014110D01*
X017017Y013952D02*
X031670Y013952D01*
X031670Y013793D02*
X017075Y013793D01*
X017132Y013635D02*
X031670Y013635D01*
X031670Y013476D02*
X017190Y013476D01*
X017248Y013318D02*
X031670Y013318D01*
X031670Y013159D02*
X017305Y013159D01*
X017363Y013001D02*
X031670Y013001D01*
X031670Y012842D02*
X017420Y012842D01*
X017478Y012684D02*
X031670Y012684D01*
X031670Y012525D02*
X017536Y012525D01*
X017593Y012367D02*
X031670Y012367D01*
X031670Y012208D02*
X017651Y012208D01*
X017767Y012050D02*
X031670Y012050D01*
X031670Y011891D02*
X017894Y011891D01*
X018021Y011733D02*
X025670Y011733D01*
X025930Y011430D02*
X017930Y011430D01*
X017430Y012055D01*
X015430Y017555D01*
X015142Y017280D02*
X014890Y017280D01*
X014890Y017439D02*
X015047Y017439D01*
X015032Y017597D02*
X014890Y017597D01*
X014890Y017756D02*
X015082Y017756D01*
X015133Y017914D02*
X014890Y017914D01*
X014704Y018180D02*
X014454Y018430D01*
X014704Y018180D02*
X015430Y018180D01*
X015727Y017914D02*
X018816Y017914D01*
X018638Y017756D02*
X015778Y017756D01*
X015828Y017597D02*
X018479Y017597D01*
X018420Y017439D02*
X015813Y017439D01*
X015807Y017280D02*
X018420Y017280D01*
X018420Y017122D02*
X015864Y017122D01*
X015922Y016963D02*
X018420Y016963D01*
X018420Y016805D02*
X015980Y016805D01*
X016037Y016646D02*
X018420Y016646D01*
X018420Y016488D02*
X016095Y016488D01*
X016152Y016329D02*
X018420Y016329D01*
X018420Y016171D02*
X016210Y016171D01*
X016268Y016012D02*
X018420Y016012D01*
X018420Y015854D02*
X016325Y015854D01*
X016383Y015695D02*
X018420Y015695D01*
X018458Y015537D02*
X016441Y015537D01*
X016498Y015378D02*
X018614Y015378D01*
X018773Y015220D02*
X016556Y015220D01*
X016060Y015061D02*
X014714Y015061D01*
X014714Y014903D02*
X016118Y014903D01*
X016176Y014744D02*
X014714Y014744D01*
X014714Y014586D02*
X016233Y014586D01*
X016291Y014427D02*
X014714Y014427D01*
X014703Y014269D02*
X016348Y014269D01*
X016406Y014110D02*
X014655Y014110D01*
X014492Y013952D02*
X016464Y013952D01*
X016521Y013793D02*
X003960Y013793D01*
X003960Y013635D02*
X016579Y013635D01*
X016637Y013476D02*
X003960Y013476D01*
X003960Y013318D02*
X016694Y013318D01*
X016752Y013159D02*
X003960Y013159D01*
X003960Y013001D02*
X016810Y013001D01*
X016867Y012842D02*
X003960Y012842D01*
X003960Y012684D02*
X016925Y012684D01*
X016982Y012525D02*
X003960Y012525D01*
X003960Y012367D02*
X017040Y012367D01*
X017098Y012208D02*
X003960Y012208D01*
X003960Y012050D02*
X017155Y012050D01*
X017228Y011891D02*
X003960Y011891D01*
X003960Y011733D02*
X017355Y011733D01*
X017482Y011574D02*
X003960Y011574D01*
X003960Y011416D02*
X017609Y011416D01*
X017735Y011257D02*
X003960Y011257D01*
X003960Y011099D02*
X025698Y011099D01*
X026162Y011099D02*
X032144Y011099D01*
X031985Y011257D02*
X026289Y011257D01*
X026328Y011416D02*
X031827Y011416D01*
X031692Y011574D02*
X026301Y011574D01*
X026190Y011733D02*
X031670Y011733D01*
X031930Y011680D02*
X032430Y011180D01*
X036680Y011180D01*
X037180Y011680D01*
X036828Y012050D02*
X032190Y012050D01*
X032190Y012208D02*
X036987Y012208D01*
X036772Y012367D02*
X032190Y012367D01*
X032190Y012525D02*
X036692Y012525D01*
X036670Y012684D02*
X032190Y012684D01*
X032190Y012842D02*
X036695Y012842D01*
X036779Y013001D02*
X032190Y013001D01*
X032190Y013159D02*
X037004Y013159D01*
X036821Y013318D02*
X032190Y013318D01*
X032190Y013476D02*
X036712Y013476D01*
X036670Y013635D02*
X032190Y013635D01*
X032190Y013793D02*
X036675Y013793D01*
X036740Y013952D02*
X032190Y013952D01*
X032190Y014110D02*
X036889Y014110D01*
X036870Y014269D02*
X032190Y014269D01*
X032190Y014427D02*
X036733Y014427D01*
X036670Y014586D02*
X032190Y014586D01*
X032190Y014744D02*
X036670Y014744D01*
X036720Y014903D02*
X032216Y014903D01*
X032312Y015061D02*
X036840Y015061D01*
X036959Y015220D02*
X032328Y015220D01*
X032279Y015378D02*
X036761Y015378D01*
X036687Y015537D02*
X032110Y015537D01*
X031930Y015180D02*
X031930Y011680D01*
X032245Y011733D02*
X036670Y011733D01*
X036672Y011574D02*
X032404Y011574D01*
X032190Y011891D02*
X036715Y011891D01*
X036670Y010782D02*
X003960Y010782D01*
X003960Y010940D02*
X032330Y010940D01*
X031632Y007920D02*
X031544Y007883D01*
X031477Y007816D01*
X031227Y007566D01*
X031190Y007478D01*
X031190Y004253D01*
X031092Y004156D01*
X031032Y004009D01*
X031032Y003851D01*
X031092Y003704D01*
X031204Y003592D01*
X031351Y003532D01*
X031509Y003532D01*
X031548Y003548D01*
X031532Y003509D01*
X031532Y003351D01*
X031592Y003204D01*
X031704Y003092D01*
X031851Y003032D01*
X032009Y003032D01*
X032156Y003092D01*
X032268Y003204D01*
X032328Y003351D01*
X032328Y003509D01*
X032268Y003656D01*
X032170Y003753D01*
X032170Y006831D01*
X032279Y006940D01*
X036736Y006940D01*
X036736Y006940D01*
X036628Y006940D01*
X036533Y006900D01*
X036460Y006827D01*
X036210Y006577D01*
X036170Y006482D01*
X036170Y005913D01*
X034835Y004577D01*
X034795Y004482D01*
X034795Y003608D01*
X034740Y003553D01*
X034740Y004050D01*
X034634Y004155D01*
X033974Y004155D01*
X033916Y004098D01*
X033910Y004103D01*
X033874Y004124D01*
X033833Y004135D01*
X033604Y004135D01*
X033604Y003728D01*
X033508Y003728D01*
X033508Y004135D01*
X033279Y004135D01*
X033238Y004124D01*
X033202Y004103D01*
X033172Y004074D01*
X033151Y004037D01*
X033140Y003996D01*
X033140Y003728D01*
X033508Y003728D01*
X033508Y003632D01*
X033604Y003632D01*
X033604Y003225D01*
X033833Y003225D01*
X033874Y003236D01*
X033910Y003257D01*
X033916Y003262D01*
X033974Y003205D01*
X034130Y003205D01*
X034130Y003010D01*
X034052Y002932D01*
X033984Y002769D01*
X033984Y002591D01*
X034052Y002428D01*
X034165Y002315D01*
X033695Y002315D01*
X033808Y002428D01*
X033876Y002591D01*
X033876Y002769D01*
X033808Y002932D01*
X033682Y003058D01*
X033519Y003126D01*
X033341Y003126D01*
X033178Y003058D01*
X033052Y002932D01*
X032984Y002769D01*
X032984Y002591D01*
X033052Y002428D01*
X033165Y002315D01*
X032651Y002315D01*
X032653Y002316D01*
X032707Y002355D01*
X032755Y002403D01*
X032794Y002457D01*
X032825Y002517D01*
X032845Y002580D01*
X032856Y002646D01*
X032856Y002671D01*
X032439Y002671D01*
X032439Y002689D01*
X032421Y002689D01*
X032421Y003106D01*
X032396Y003106D01*
X032330Y003095D01*
X032267Y003075D01*
X032207Y003044D01*
X032153Y003005D01*
X032105Y002957D01*
X032066Y002903D01*
X032035Y002843D01*
X032015Y002780D01*
X032004Y002714D01*
X032004Y002689D01*
X032421Y002689D01*
X032421Y002671D01*
X032004Y002671D01*
X032004Y002646D01*
X032015Y002580D01*
X032035Y002517D01*
X032066Y002457D01*
X032105Y002403D01*
X032153Y002355D01*
X032207Y002316D01*
X032209Y002315D01*
X031413Y002315D01*
X030577Y003150D01*
X030482Y003190D01*
X028339Y003190D01*
X028406Y003217D01*
X028483Y003295D01*
X029982Y003295D01*
X030077Y003335D01*
X030150Y003408D01*
X030275Y003533D01*
X030315Y003628D01*
X030315Y003877D01*
X030393Y003954D01*
X030453Y004101D01*
X030453Y004259D01*
X030393Y004406D01*
X030281Y004518D01*
X030134Y004578D01*
X029976Y004578D01*
X029829Y004518D01*
X029717Y004406D01*
X029657Y004259D01*
X029657Y004101D01*
X029717Y003954D01*
X029795Y003877D01*
X029795Y003815D01*
X028483Y003815D01*
X028406Y003893D01*
X028382Y003902D01*
X028467Y003988D01*
X028519Y004113D01*
X028519Y004247D01*
X028467Y004372D01*
X028409Y004430D01*
X028467Y004488D01*
X028519Y004613D01*
X028519Y004747D01*
X028467Y004872D01*
X028409Y004930D01*
X028467Y004988D01*
X028519Y005113D01*
X028519Y005247D01*
X028467Y005372D01*
X028409Y005430D01*
X028467Y005488D01*
X028519Y005613D01*
X028519Y005747D01*
X028467Y005872D01*
X028409Y005930D01*
X028467Y005988D01*
X028519Y006113D01*
X028519Y006247D01*
X028467Y006372D01*
X028372Y006467D01*
X028247Y006519D01*
X028113Y006519D01*
X027988Y006467D01*
X027930Y006409D01*
X027872Y006467D01*
X027747Y006519D01*
X027613Y006519D01*
X027488Y006467D01*
X027430Y006409D01*
X027372Y006467D01*
X027247Y006519D01*
X027113Y006519D01*
X026988Y006467D01*
X026893Y006372D01*
X026841Y006247D01*
X026841Y006113D01*
X026893Y005988D01*
X026951Y005930D01*
X026893Y005872D01*
X026841Y005747D01*
X026841Y005613D01*
X026893Y005488D01*
X026951Y005430D01*
X026893Y005372D01*
X026841Y005247D01*
X026841Y005113D01*
X026893Y004988D01*
X026951Y004930D01*
X026893Y004872D01*
X026841Y004747D01*
X026841Y004613D01*
X026893Y004488D01*
X026951Y004430D01*
X026893Y004372D01*
X026841Y004247D01*
X026841Y004113D01*
X026893Y003988D01*
X026988Y003893D01*
X027113Y003841D01*
X027247Y003841D01*
X027372Y003893D01*
X027430Y003951D01*
X027488Y003893D01*
X027613Y003841D01*
X027747Y003841D01*
X027872Y003893D01*
X027930Y003951D01*
X027978Y003902D01*
X027954Y003893D01*
X027842Y003781D01*
X027782Y003634D01*
X027782Y003476D01*
X027842Y003329D01*
X027954Y003217D01*
X028021Y003190D01*
X026578Y003190D01*
X026578Y003259D01*
X026518Y003406D01*
X026406Y003518D01*
X026259Y003578D01*
X026101Y003578D01*
X025954Y003518D01*
X025877Y003440D01*
X025538Y003440D01*
X025440Y003538D01*
X025440Y004232D01*
X025400Y004327D01*
X025025Y004702D01*
X024952Y004775D01*
X024857Y004815D01*
X024856Y004815D01*
X024780Y004892D01*
X024633Y004952D01*
X024475Y004952D01*
X024329Y004892D01*
X024217Y004780D01*
X024156Y004633D01*
X024156Y004475D01*
X024217Y004329D01*
X024329Y004217D01*
X024475Y004156D01*
X024633Y004156D01*
X024777Y004215D01*
X024920Y004072D01*
X024920Y003378D01*
X024960Y003283D01*
X025033Y003210D01*
X025283Y002960D01*
X025378Y002920D01*
X025877Y002920D01*
X025954Y002842D01*
X026101Y002782D01*
X026210Y002782D01*
X026283Y002710D01*
X026378Y002670D01*
X030322Y002670D01*
X031085Y001908D01*
X031158Y001835D01*
X031253Y001795D01*
X034357Y001795D01*
X034452Y001835D01*
X034577Y001960D01*
X034650Y002033D01*
X034690Y002128D01*
X034690Y002310D01*
X034800Y002420D01*
X035482Y002420D01*
X035577Y002460D01*
X035900Y002783D01*
X035940Y002878D01*
X035940Y004322D01*
X036878Y005261D01*
X036891Y005248D01*
X037079Y005170D01*
X037281Y005170D01*
X037469Y005248D01*
X037612Y005391D01*
X037633Y005440D01*
X037727Y005440D01*
X037748Y005391D01*
X037891Y005248D01*
X038079Y005170D01*
X038281Y005170D01*
X038469Y005248D01*
X038612Y005391D01*
X038690Y005579D01*
X038690Y005781D01*
X038612Y005969D01*
X038469Y006112D01*
X038306Y006180D01*
X038469Y006248D01*
X038612Y006391D01*
X038690Y006579D01*
X038690Y006781D01*
X038612Y006969D01*
X038469Y007112D01*
X038306Y007180D01*
X038469Y007248D01*
X038612Y007391D01*
X038690Y007579D01*
X038690Y007781D01*
X038612Y007969D01*
X038469Y008112D01*
X038281Y008190D01*
X038079Y008190D01*
X037891Y008112D01*
X037748Y007969D01*
X037680Y007806D01*
X037612Y007969D01*
X037469Y008112D01*
X037281Y008190D01*
X037079Y008190D01*
X036891Y008112D01*
X036748Y007969D01*
X036727Y007920D01*
X031632Y007920D01*
X031477Y007816D02*
X031477Y007816D01*
X031431Y007770D02*
X003960Y007770D01*
X003960Y007612D02*
X031272Y007612D01*
X031190Y007453D02*
X003960Y007453D01*
X003960Y007295D02*
X031190Y007295D01*
X031190Y007136D02*
X003960Y007136D01*
X003960Y006978D02*
X031190Y006978D01*
X031190Y006819D02*
X003960Y006819D01*
X003960Y006661D02*
X031190Y006661D01*
X031190Y006502D02*
X028289Y006502D01*
X028071Y006502D02*
X027789Y006502D01*
X027571Y006502D02*
X027289Y006502D01*
X027071Y006502D02*
X003960Y006502D01*
X003960Y006344D02*
X025255Y006344D01*
X025217Y006306D02*
X025157Y006159D01*
X025157Y006001D01*
X025217Y005854D01*
X025295Y005777D01*
X025295Y005358D01*
X025217Y005281D01*
X025157Y005134D01*
X025157Y004976D01*
X025217Y004829D01*
X025329Y004717D01*
X025476Y004657D01*
X025634Y004657D01*
X025781Y004717D01*
X025893Y004829D01*
X025953Y004976D01*
X025953Y005134D01*
X025893Y005281D01*
X025815Y005358D01*
X025815Y005777D01*
X025893Y005854D01*
X025953Y006001D01*
X025953Y006159D01*
X025893Y006306D01*
X025781Y006418D01*
X025634Y006478D01*
X025476Y006478D01*
X025329Y006418D01*
X025217Y006306D01*
X025168Y006185D02*
X003960Y006185D01*
X003960Y006027D02*
X025157Y006027D01*
X025212Y005868D02*
X003960Y005868D01*
X003960Y005710D02*
X025295Y005710D01*
X025295Y005551D02*
X003960Y005551D01*
X003960Y005393D02*
X025295Y005393D01*
X025198Y005234D02*
X003960Y005234D01*
X003960Y005076D02*
X025157Y005076D01*
X025181Y004917D02*
X024718Y004917D01*
X024969Y004759D02*
X025288Y004759D01*
X025128Y004600D02*
X026846Y004600D01*
X026846Y004759D02*
X025822Y004759D01*
X025929Y004917D02*
X026938Y004917D01*
X026856Y005076D02*
X025953Y005076D01*
X025912Y005234D02*
X026841Y005234D01*
X026913Y005393D02*
X025815Y005393D01*
X025815Y005551D02*
X026866Y005551D01*
X026841Y005710D02*
X025815Y005710D01*
X025898Y005868D02*
X026891Y005868D01*
X026877Y006027D02*
X025953Y006027D01*
X025942Y006185D02*
X026841Y006185D01*
X026881Y006344D02*
X025855Y006344D01*
X025555Y006080D02*
X025555Y005055D01*
X025286Y004442D02*
X026939Y004442D01*
X026856Y004283D02*
X025419Y004283D01*
X025440Y004125D02*
X026841Y004125D01*
X026914Y003966D02*
X025440Y003966D01*
X025440Y003808D02*
X027869Y003808D01*
X027788Y003649D02*
X025440Y003649D01*
X025487Y003491D02*
X025927Y003491D01*
X026180Y003180D02*
X025430Y003180D01*
X025180Y003430D01*
X025180Y004180D01*
X024805Y004555D01*
X024680Y004555D01*
X024554Y004554D01*
X024390Y004917D02*
X003960Y004917D01*
X003960Y004759D02*
X024208Y004759D01*
X024156Y004600D02*
X003960Y004600D01*
X003960Y004466D02*
X003960Y031150D01*
X006492Y031150D01*
X006595Y031193D01*
X006673Y031271D01*
X006716Y031374D01*
X006716Y033433D01*
X036077Y033433D01*
X036077Y031296D01*
X036120Y031193D01*
X036199Y031114D01*
X036301Y031071D01*
X038833Y031071D01*
X038833Y004466D01*
X036624Y004466D01*
X036521Y004423D01*
X036443Y004345D01*
X036400Y004242D01*
X036400Y001710D01*
X006716Y001710D01*
X006716Y004242D01*
X006673Y004345D01*
X006595Y004423D01*
X006492Y004466D01*
X003960Y004466D01*
X006551Y004442D02*
X024170Y004442D01*
X024262Y004283D02*
X006699Y004283D01*
X006716Y004125D02*
X024868Y004125D01*
X024920Y003966D02*
X006716Y003966D01*
X006716Y003808D02*
X024920Y003808D01*
X024920Y003649D02*
X020349Y003649D01*
X020355Y003647D02*
X020287Y003669D01*
X020216Y003681D01*
X020198Y003681D01*
X020198Y002948D01*
X020635Y002948D01*
X020635Y003261D01*
X020624Y003332D01*
X024939Y003332D01*
X024920Y003491D02*
X020550Y003491D01*
X020569Y003464D02*
X020527Y003522D01*
X020477Y003573D01*
X020419Y003615D01*
X020355Y003647D01*
X020198Y003649D02*
X020162Y003649D01*
X020162Y003681D02*
X020144Y003681D01*
X020073Y003669D01*
X020005Y003647D01*
X019941Y003615D01*
X019883Y003573D01*
X019833Y003522D01*
X019791Y003464D01*
X019758Y003400D01*
X019736Y003332D01*
X019650Y003332D01*
X019655Y003320D02*
X019583Y003494D01*
X019449Y003628D01*
X019275Y003701D01*
X019085Y003701D01*
X018911Y003628D01*
X018777Y003494D01*
X018705Y003320D01*
X018705Y002540D01*
X018777Y002366D01*
X018911Y002232D01*
X019085Y002159D01*
X019275Y002159D01*
X019449Y002232D01*
X019583Y002366D01*
X019655Y002540D01*
X019655Y003320D01*
X019736Y003332D02*
X019725Y003261D01*
X019725Y002948D01*
X020162Y002948D01*
X020162Y002912D01*
X020198Y002912D01*
X020198Y002948D01*
X020162Y002948D01*
X020162Y003681D01*
X020011Y003649D02*
X019399Y003649D01*
X019585Y003491D02*
X019810Y003491D01*
X019725Y003174D02*
X019655Y003174D01*
X019655Y003015D02*
X019725Y003015D01*
X019725Y002912D02*
X019725Y002599D01*
X019736Y002528D01*
X019758Y002460D01*
X019791Y002396D01*
X019833Y002338D01*
X019883Y002287D01*
X019941Y002245D01*
X020005Y002213D01*
X020073Y002191D01*
X020144Y002179D01*
X020162Y002179D01*
X020162Y002912D01*
X019725Y002912D01*
X019725Y002857D02*
X019655Y002857D01*
X019655Y002698D02*
X019725Y002698D01*
X019734Y002540D02*
X019655Y002540D01*
X019589Y002381D02*
X019802Y002381D01*
X019986Y002223D02*
X019427Y002223D01*
X018933Y002223D02*
X006716Y002223D01*
X006716Y002381D02*
X018771Y002381D01*
X018705Y002540D02*
X006716Y002540D01*
X006716Y002698D02*
X018705Y002698D01*
X018705Y002857D02*
X006716Y002857D01*
X006716Y003015D02*
X018705Y003015D01*
X018705Y003174D02*
X006716Y003174D01*
X006716Y003332D02*
X018710Y003332D01*
X018775Y003491D02*
X006716Y003491D01*
X006716Y003649D02*
X018961Y003649D01*
X020162Y003491D02*
X020198Y003491D01*
X020198Y003332D02*
X020162Y003332D01*
X020162Y003174D02*
X020198Y003174D01*
X020198Y003015D02*
X020162Y003015D01*
X020198Y002912D02*
X020635Y002912D01*
X020635Y002599D01*
X020624Y002528D01*
X020602Y002460D01*
X020569Y002396D01*
X020527Y002338D01*
X020477Y002287D01*
X020419Y002245D01*
X020355Y002213D01*
X020287Y002191D01*
X020216Y002179D01*
X020198Y002179D01*
X020198Y002912D01*
X020198Y002857D02*
X020162Y002857D01*
X020162Y002698D02*
X020198Y002698D01*
X020198Y002540D02*
X020162Y002540D01*
X020162Y002381D02*
X020198Y002381D01*
X020198Y002223D02*
X020162Y002223D01*
X020374Y002223D02*
X030770Y002223D01*
X030611Y002381D02*
X020558Y002381D01*
X020626Y002540D02*
X030453Y002540D01*
X030430Y002930D02*
X031305Y002055D01*
X034305Y002055D01*
X034430Y002180D01*
X034430Y002680D01*
X035430Y002680D01*
X035680Y002930D01*
X035680Y004430D01*
X036930Y005680D01*
X037180Y005680D01*
X037436Y005234D02*
X037924Y005234D01*
X037747Y005393D02*
X037613Y005393D01*
X036924Y005234D02*
X036852Y005234D01*
X036693Y005076D02*
X038833Y005076D01*
X038833Y005234D02*
X038436Y005234D01*
X038613Y005393D02*
X038833Y005393D01*
X038833Y005551D02*
X038679Y005551D01*
X038690Y005710D02*
X038833Y005710D01*
X038833Y005868D02*
X038654Y005868D01*
X038555Y006027D02*
X038833Y006027D01*
X038833Y006185D02*
X038318Y006185D01*
X038565Y006344D02*
X038833Y006344D01*
X038833Y006502D02*
X038658Y006502D01*
X038690Y006661D02*
X038833Y006661D01*
X038833Y006819D02*
X038674Y006819D01*
X038604Y006978D02*
X038833Y006978D01*
X038833Y007136D02*
X038412Y007136D01*
X038516Y007295D02*
X038833Y007295D01*
X038833Y007453D02*
X038638Y007453D01*
X038690Y007612D02*
X038833Y007612D01*
X038833Y007770D02*
X038690Y007770D01*
X038629Y007929D02*
X038833Y007929D01*
X038833Y008087D02*
X038494Y008087D01*
X038407Y008246D02*
X038833Y008246D01*
X038833Y008404D02*
X038585Y008404D01*
X038599Y008423D02*
X038634Y008492D01*
X038658Y008565D01*
X038670Y008641D01*
X038670Y008662D01*
X038198Y008662D01*
X038198Y008698D01*
X038162Y008698D01*
X038162Y008662D01*
X037690Y008662D01*
X037690Y008641D01*
X037702Y008565D01*
X037726Y008492D01*
X037761Y008423D01*
X037806Y008361D01*
X037861Y008306D01*
X037923Y008261D01*
X037992Y008226D01*
X038065Y008202D01*
X038141Y008190D01*
X038162Y008190D01*
X038162Y008662D01*
X038198Y008662D01*
X038198Y008190D01*
X038219Y008190D01*
X038295Y008202D01*
X038368Y008226D01*
X038437Y008261D01*
X038499Y008306D01*
X038554Y008361D01*
X038599Y008423D01*
X038657Y008563D02*
X038833Y008563D01*
X038833Y008721D02*
X038670Y008721D01*
X038670Y008719D02*
X038658Y008795D01*
X038634Y008868D01*
X038599Y008937D01*
X038554Y008999D01*
X038499Y009054D01*
X038437Y009099D01*
X038368Y009134D01*
X038295Y009158D01*
X038219Y009170D01*
X038198Y009170D01*
X038198Y008698D01*
X038670Y008698D01*
X038670Y008719D01*
X038628Y008880D02*
X038833Y008880D01*
X038833Y009038D02*
X038515Y009038D01*
X038437Y009261D02*
X038499Y009306D01*
X038554Y009361D01*
X038599Y009423D01*
X038634Y009492D01*
X038658Y009565D01*
X038670Y009641D01*
X038670Y009662D01*
X038198Y009662D01*
X038198Y009698D01*
X038162Y009698D01*
X038162Y009662D01*
X037690Y009662D01*
X037690Y009641D01*
X037702Y009565D01*
X037726Y009492D01*
X037761Y009423D01*
X037806Y009361D01*
X037861Y009306D01*
X037923Y009261D01*
X037992Y009226D01*
X038065Y009202D01*
X038141Y009190D01*
X038162Y009190D01*
X038162Y009662D01*
X038198Y009662D01*
X038198Y009190D01*
X038219Y009190D01*
X038295Y009202D01*
X038368Y009226D01*
X038437Y009261D01*
X038548Y009355D02*
X038833Y009355D01*
X038833Y009197D02*
X038260Y009197D01*
X038198Y009197D02*
X038162Y009197D01*
X038162Y009170D02*
X038141Y009170D01*
X038065Y009158D01*
X037992Y009134D01*
X037923Y009099D01*
X037861Y009054D01*
X037806Y008999D01*
X037761Y008937D01*
X037726Y008868D01*
X037702Y008795D01*
X037690Y008719D01*
X037690Y008698D01*
X038162Y008698D01*
X038162Y009170D01*
X038100Y009197D02*
X037260Y009197D01*
X037295Y009202D02*
X037368Y009226D01*
X037437Y009261D01*
X037499Y009306D01*
X037554Y009361D01*
X037599Y009423D01*
X037634Y009492D01*
X037658Y009565D01*
X037670Y009641D01*
X037670Y009662D01*
X037198Y009662D01*
X037198Y009698D01*
X037162Y009698D01*
X037162Y009662D01*
X036690Y009662D01*
X036690Y009641D01*
X036702Y009565D01*
X036726Y009492D01*
X036761Y009423D01*
X036806Y009361D01*
X036861Y009306D01*
X036923Y009261D01*
X036992Y009226D01*
X037065Y009202D01*
X037141Y009190D01*
X037162Y009190D01*
X037162Y009662D01*
X037198Y009662D01*
X037198Y009190D01*
X037219Y009190D01*
X037295Y009202D01*
X037295Y009158D02*
X037219Y009170D01*
X037198Y009170D01*
X037198Y008698D01*
X037162Y008698D01*
X037162Y008662D01*
X036690Y008662D01*
X036690Y008641D01*
X036702Y008565D01*
X036726Y008492D01*
X036761Y008423D01*
X036806Y008361D01*
X036861Y008306D01*
X036923Y008261D01*
X036992Y008226D01*
X037065Y008202D01*
X037141Y008190D01*
X037162Y008190D01*
X037162Y008662D01*
X037198Y008662D01*
X037198Y008698D01*
X037670Y008698D01*
X037670Y008719D01*
X037658Y008795D01*
X037634Y008868D01*
X037599Y008937D01*
X037554Y008999D01*
X037499Y009054D01*
X037437Y009099D01*
X037368Y009134D01*
X037295Y009158D01*
X037198Y009197D02*
X037162Y009197D01*
X037162Y009170D02*
X037141Y009170D01*
X037065Y009158D01*
X036992Y009134D01*
X036923Y009099D01*
X036861Y009054D01*
X036806Y008999D01*
X036761Y008937D01*
X036726Y008868D01*
X036702Y008795D01*
X036690Y008719D01*
X036690Y008698D01*
X037162Y008698D01*
X037162Y009170D01*
X037100Y009197D02*
X003960Y009197D01*
X003960Y009355D02*
X036812Y009355D01*
X036719Y009514D02*
X003960Y009514D01*
X003960Y009672D02*
X037162Y009672D01*
X037162Y009698D02*
X036690Y009698D01*
X036690Y009719D01*
X036702Y009795D01*
X036726Y009868D01*
X036761Y009937D01*
X036806Y009999D01*
X036861Y010054D01*
X036923Y010099D01*
X036992Y010134D01*
X037065Y010158D01*
X037141Y010170D01*
X037162Y010170D01*
X037162Y009698D01*
X037198Y009698D02*
X037198Y010170D01*
X037219Y010170D01*
X037295Y010158D01*
X037368Y010134D01*
X037437Y010099D01*
X037499Y010054D01*
X037554Y009999D01*
X037599Y009937D01*
X037634Y009868D01*
X037658Y009795D01*
X037670Y009719D01*
X037670Y009698D01*
X037198Y009698D01*
X037198Y009672D02*
X038162Y009672D01*
X038162Y009698D02*
X037690Y009698D01*
X037690Y009719D01*
X037702Y009795D01*
X037726Y009868D01*
X037761Y009937D01*
X037806Y009999D01*
X037861Y010054D01*
X037923Y010099D01*
X037992Y010134D01*
X038065Y010158D01*
X038141Y010170D01*
X038162Y010170D01*
X038162Y009698D01*
X038198Y009698D02*
X038198Y010170D01*
X038219Y010170D01*
X038295Y010158D01*
X038368Y010134D01*
X038437Y010099D01*
X038499Y010054D01*
X038554Y009999D01*
X038599Y009937D01*
X038634Y009868D01*
X038658Y009795D01*
X038670Y009719D01*
X038670Y009698D01*
X038198Y009698D01*
X038198Y009672D02*
X038833Y009672D01*
X038833Y009514D02*
X038641Y009514D01*
X038646Y009831D02*
X038833Y009831D01*
X038833Y009989D02*
X038561Y009989D01*
X038327Y010148D02*
X038833Y010148D01*
X038833Y010306D02*
X038527Y010306D01*
X038643Y010465D02*
X038833Y010465D01*
X038833Y010623D02*
X038690Y010623D01*
X038690Y010782D02*
X038833Y010782D01*
X038833Y010940D02*
X038624Y010940D01*
X038483Y011099D02*
X038833Y011099D01*
X038833Y011257D02*
X038478Y011257D01*
X038622Y011416D02*
X038833Y011416D01*
X038833Y011574D02*
X038688Y011574D01*
X038690Y011733D02*
X038833Y011733D01*
X038833Y011891D02*
X038645Y011891D01*
X038532Y012050D02*
X038833Y012050D01*
X038833Y012208D02*
X038373Y012208D01*
X038588Y012367D02*
X038833Y012367D01*
X038833Y012525D02*
X038668Y012525D01*
X038690Y012684D02*
X038833Y012684D01*
X038833Y012842D02*
X038665Y012842D01*
X038581Y013001D02*
X038833Y013001D01*
X038833Y013159D02*
X038356Y013159D01*
X038539Y013318D02*
X038833Y013318D01*
X038833Y013476D02*
X038648Y013476D01*
X038690Y013635D02*
X038833Y013635D01*
X038833Y013793D02*
X038685Y013793D01*
X038620Y013952D02*
X038833Y013952D01*
X038833Y014110D02*
X038471Y014110D01*
X038490Y014269D02*
X038833Y014269D01*
X038833Y014427D02*
X038627Y014427D01*
X038690Y014586D02*
X038833Y014586D01*
X038833Y014744D02*
X038690Y014744D01*
X038640Y014903D02*
X038833Y014903D01*
X038833Y015061D02*
X038520Y015061D01*
X038401Y015220D02*
X038833Y015220D01*
X038833Y015378D02*
X038599Y015378D01*
X038673Y015537D02*
X038833Y015537D01*
X038833Y015695D02*
X038690Y015695D01*
X038660Y015854D02*
X038833Y015854D01*
X038833Y016012D02*
X038569Y016012D01*
X038328Y016171D02*
X038833Y016171D01*
X038833Y016329D02*
X038550Y016329D01*
X038652Y016488D02*
X038833Y016488D01*
X038833Y016646D02*
X038690Y016646D01*
X038680Y016805D02*
X038833Y016805D01*
X038833Y016963D02*
X038615Y016963D01*
X038447Y017122D02*
X038833Y017122D01*
X038833Y017280D02*
X038501Y017280D01*
X038632Y017439D02*
X038833Y017439D01*
X038833Y017597D02*
X038690Y017597D01*
X038690Y017756D02*
X038833Y017756D01*
X038833Y017914D02*
X038635Y017914D01*
X038509Y018073D02*
X038833Y018073D01*
X038833Y018231D02*
X031192Y018231D01*
X031302Y018073D02*
X036670Y018073D01*
X036670Y017914D02*
X031328Y017914D01*
X031289Y017756D02*
X036670Y017756D01*
X036670Y017597D02*
X031160Y017597D01*
X030870Y017439D02*
X036670Y017439D01*
X036670Y017280D02*
X030743Y017280D01*
X030616Y017122D02*
X036913Y017122D01*
X036745Y016963D02*
X030489Y016963D01*
X030363Y016805D02*
X036680Y016805D01*
X036670Y016646D02*
X030236Y016646D01*
X030109Y016488D02*
X036708Y016488D01*
X036810Y016329D02*
X023203Y016329D01*
X023180Y016171D02*
X037032Y016171D01*
X036791Y016012D02*
X023075Y016012D01*
X022805Y016305D02*
X023180Y016680D01*
X022671Y016805D02*
X022172Y016805D01*
X022331Y016963D02*
X022464Y016963D01*
X022588Y016646D02*
X020200Y016646D01*
X020200Y016488D02*
X022450Y016488D01*
X022407Y016329D02*
X020200Y016329D01*
X020200Y016171D02*
X022430Y016171D01*
X022535Y016012D02*
X020200Y016012D01*
X020178Y015854D02*
X036700Y015854D01*
X036670Y015695D02*
X019990Y015695D01*
X019681Y016930D02*
X019705Y016954D01*
X019681Y016930D02*
X019680Y016930D01*
X019681Y016930D02*
X021930Y016930D01*
X022305Y017305D01*
X022305Y018680D01*
X022930Y019305D01*
X023212Y019024D02*
X027420Y019024D01*
X027417Y019182D02*
X023310Y019182D01*
X023328Y019341D02*
X027473Y019341D01*
X027679Y019499D02*
X023281Y019499D01*
X023119Y019658D02*
X027901Y019658D01*
X028123Y019816D02*
X022607Y019816D01*
X022565Y019975D02*
X028345Y019975D01*
X028567Y020133D02*
X022565Y020133D01*
X022634Y020292D02*
X028789Y020292D01*
X029011Y020450D02*
X023613Y020450D01*
X023780Y020609D02*
X029165Y020609D01*
X029160Y020767D02*
X023828Y020767D01*
X023811Y020926D02*
X029155Y020926D01*
X029151Y021084D02*
X027885Y021084D01*
X028033Y021243D02*
X029146Y021243D01*
X029141Y021401D02*
X028078Y021401D01*
X028057Y021560D02*
X029137Y021560D01*
X029132Y021718D02*
X027955Y021718D01*
X027680Y021430D02*
X024430Y021430D01*
X023430Y022430D01*
X023430Y024680D01*
X023585Y025047D02*
X029034Y025047D01*
X029039Y024888D02*
X023775Y024888D01*
X023828Y024730D02*
X029043Y024730D01*
X029048Y024571D02*
X023816Y024571D01*
X023878Y024413D02*
X023726Y024413D01*
X023707Y024254D02*
X023690Y024254D01*
X024055Y024055D02*
X026680Y024055D01*
X028680Y022180D01*
X029051Y022035D02*
X029123Y022035D01*
X029127Y021877D02*
X028940Y021877D01*
X029078Y022194D02*
X029118Y022194D01*
X029113Y022352D02*
X029040Y022352D01*
X029109Y022511D02*
X028912Y022511D01*
X029104Y022669D02*
X028539Y022669D01*
X028369Y022828D02*
X029099Y022828D01*
X029095Y022986D02*
X028200Y022986D01*
X028031Y023145D02*
X029090Y023145D01*
X029085Y023303D02*
X027862Y023303D01*
X027693Y023462D02*
X029081Y023462D01*
X029076Y023620D02*
X027524Y023620D01*
X027355Y023779D02*
X029071Y023779D01*
X029067Y023937D02*
X027186Y023937D01*
X027017Y024096D02*
X029062Y024096D01*
X029057Y024254D02*
X026849Y024254D01*
X026595Y023779D02*
X024342Y023779D01*
X023768Y023779D02*
X023690Y023779D01*
X023690Y023620D02*
X026764Y023620D01*
X026933Y023462D02*
X023690Y023462D01*
X023690Y023303D02*
X027102Y023303D01*
X027271Y023145D02*
X023690Y023145D01*
X023690Y022986D02*
X027440Y022986D01*
X027609Y022828D02*
X023690Y022828D01*
X023690Y022669D02*
X027778Y022669D01*
X027947Y022511D02*
X023717Y022511D01*
X023876Y022352D02*
X028116Y022352D01*
X028282Y022194D02*
X024034Y022194D01*
X024193Y022035D02*
X028309Y022035D01*
X028420Y021877D02*
X024351Y021877D01*
X024510Y021718D02*
X027405Y021718D01*
X027475Y021084D02*
X023714Y021084D01*
X023690Y021243D02*
X024250Y021243D01*
X024091Y021401D02*
X023714Y021401D01*
X023811Y021560D02*
X023933Y021560D01*
X023430Y021680D02*
X023430Y020805D01*
X023330Y020580D01*
X022555Y020580D01*
X022305Y020330D01*
X022045Y020292D02*
X015756Y020292D01*
X015828Y020133D02*
X022045Y020133D01*
X022045Y019975D02*
X015828Y019975D01*
X015754Y019816D02*
X022003Y019816D01*
X021917Y019658D02*
X015789Y019658D01*
X015430Y019430D02*
X019430Y019055D01*
X020055Y018430D01*
X021055Y018430D01*
X021430Y018055D01*
X021057Y017914D02*
X020384Y017914D01*
X020453Y017756D02*
X021166Y017756D01*
X021032Y018073D02*
X020148Y018073D01*
X019962Y018073D02*
X015816Y018073D01*
X015828Y018231D02*
X019886Y018231D01*
X019728Y018390D02*
X015774Y018390D01*
X015736Y018548D02*
X019569Y018548D01*
X019411Y018707D02*
X015820Y018707D01*
X015828Y018865D02*
X018671Y018865D01*
X019170Y019341D02*
X021723Y019341D01*
X021670Y019182D02*
X019671Y019182D01*
X019829Y019024D02*
X021670Y019024D01*
X021670Y018865D02*
X019988Y018865D01*
X020146Y018707D02*
X021670Y018707D01*
X021670Y018548D02*
X021305Y018548D01*
X021658Y018390D02*
X021670Y018390D01*
X021604Y017597D02*
X020506Y017597D01*
X022565Y017597D02*
X023276Y017597D01*
X023791Y017756D02*
X022565Y017756D01*
X022565Y017914D02*
X024306Y017914D01*
X024529Y017439D02*
X030204Y017439D01*
X030077Y017280D02*
X024014Y017280D01*
X022699Y018707D02*
X026882Y018707D01*
X027397Y018865D02*
X022858Y018865D01*
X022741Y019658D02*
X022693Y019658D01*
X021881Y019499D02*
X017479Y019499D01*
X016980Y019024D02*
X015770Y019024D01*
X015430Y018805D02*
X015180Y018805D01*
X014805Y019180D01*
X014454Y019180D01*
X014579Y019930D02*
X014479Y020030D01*
X014579Y019930D02*
X015180Y019930D01*
X015430Y020055D01*
X015104Y020292D02*
X014915Y020292D01*
X014865Y020450D02*
X015343Y020450D01*
X015188Y020609D02*
X014915Y020609D01*
X014504Y020930D02*
X014479Y020955D01*
X014504Y020930D02*
X015430Y020930D01*
X015680Y021243D02*
X015702Y021243D01*
X015795Y021401D02*
X014858Y021401D01*
X014915Y021243D02*
X015180Y021243D01*
X015795Y021560D02*
X012054Y021560D01*
X011806Y021560D02*
X003960Y021560D01*
X003960Y021718D02*
X015795Y021718D01*
X015803Y021877D02*
X003960Y021877D01*
X003960Y022035D02*
X015917Y022035D01*
X016076Y022194D02*
X003960Y022194D01*
X003960Y022352D02*
X016234Y022352D01*
X016393Y022511D02*
X003960Y022511D01*
X003960Y022669D02*
X016578Y022669D01*
X016680Y022430D02*
X019180Y022430D01*
X020086Y021718D02*
X023032Y021718D01*
X023049Y021560D02*
X017177Y021560D01*
X017065Y021401D02*
X023146Y021401D01*
X023170Y021243D02*
X017158Y021243D01*
X017203Y021084D02*
X023146Y021084D01*
X023049Y020926D02*
X017182Y020926D01*
X016530Y020767D02*
X016330Y020767D01*
X016055Y021055D02*
X016055Y021805D01*
X016680Y022430D01*
X013731Y020955D02*
X012155Y020955D01*
X011930Y021180D01*
X011621Y020926D02*
X003960Y020926D01*
X003960Y021084D02*
X011539Y021084D01*
X011532Y021243D02*
X003960Y021243D01*
X003960Y021401D02*
X011591Y021401D01*
X012269Y021401D02*
X013352Y021401D01*
X013295Y021243D02*
X012328Y021243D01*
X011975Y020767D02*
X003960Y020767D01*
X003960Y020609D02*
X013295Y020609D01*
X013345Y020450D02*
X013234Y020450D01*
X013265Y020292D02*
X013295Y020292D01*
X013731Y020030D02*
X012829Y020030D01*
X013265Y019658D02*
X013298Y019658D01*
X013270Y019499D02*
X003960Y019499D01*
X003960Y019341D02*
X013270Y019341D01*
X013270Y019182D02*
X003960Y019182D01*
X003960Y019024D02*
X013270Y019024D01*
X013270Y018865D02*
X003960Y018865D01*
X003960Y018707D02*
X011669Y018707D01*
X011665Y018548D02*
X003960Y018548D01*
X003960Y018390D02*
X012033Y018390D01*
X012081Y018355D02*
X012081Y017505D01*
X012006Y017430D01*
X011180Y017430D01*
X010930Y017680D01*
X010930Y019430D01*
X011530Y020030D01*
X012081Y020030D01*
X011981Y019930D01*
X011680Y019930D01*
X011430Y020180D01*
X011665Y020133D02*
X003960Y020133D01*
X003960Y019975D02*
X011665Y019975D01*
X011665Y019982D02*
X011665Y019694D01*
X011676Y019653D01*
X011697Y019617D01*
X011727Y019587D01*
X011763Y019566D01*
X011804Y019555D01*
X012033Y019555D01*
X012033Y019982D01*
X011665Y019982D01*
X011665Y019816D02*
X003960Y019816D01*
X003960Y019658D02*
X011675Y019658D01*
X012033Y019658D02*
X012129Y019658D01*
X012129Y019816D02*
X012033Y019816D01*
X012033Y019975D02*
X012129Y019975D01*
X012129Y020133D02*
X012033Y020133D01*
X012033Y020292D02*
X012129Y020292D01*
X012129Y020450D02*
X012033Y020450D01*
X011704Y020450D02*
X003960Y020450D01*
X003960Y020292D02*
X011665Y020292D01*
X012033Y018707D02*
X012129Y018707D01*
X012129Y018548D02*
X012033Y018548D01*
X012033Y018231D02*
X012129Y018231D01*
X012129Y018073D02*
X012033Y018073D01*
X012033Y017914D02*
X012129Y017914D01*
X012129Y017756D02*
X012033Y017756D01*
X012033Y017597D02*
X012129Y017597D01*
X012129Y017439D02*
X012033Y017439D01*
X012033Y017457D02*
X012033Y017030D01*
X011804Y017030D01*
X011763Y017041D01*
X011727Y017062D01*
X011697Y017092D01*
X011676Y017128D01*
X011665Y017169D01*
X011665Y017457D01*
X012033Y017457D01*
X012033Y017280D02*
X012129Y017280D01*
X012129Y017122D02*
X012033Y017122D01*
X011680Y017122D02*
X003960Y017122D01*
X003960Y017280D02*
X011665Y017280D01*
X011665Y017439D02*
X003960Y017439D01*
X003960Y017597D02*
X011665Y017597D01*
X011665Y017756D02*
X003960Y017756D01*
X003960Y017914D02*
X011695Y017914D01*
X011665Y018073D02*
X003960Y018073D01*
X003960Y018231D02*
X011665Y018231D01*
X012829Y018355D02*
X012904Y018430D01*
X013706Y018430D01*
X013270Y018707D02*
X013265Y018707D01*
X012904Y017580D02*
X012829Y017505D01*
X012904Y017580D02*
X013706Y017580D01*
X013270Y017280D02*
X013265Y017280D01*
X013265Y017122D02*
X013359Y017122D01*
X014053Y017122D02*
X014107Y017122D01*
X014194Y016963D02*
X003960Y016963D01*
X003960Y016805D02*
X014194Y016805D01*
X014194Y016646D02*
X003960Y016646D01*
X003960Y016488D02*
X014194Y016488D01*
X014194Y016329D02*
X003960Y016329D01*
X003960Y016171D02*
X014194Y016171D01*
X014194Y016012D02*
X003960Y016012D01*
X003960Y015854D02*
X014194Y015854D01*
X014194Y015695D02*
X003960Y015695D01*
X003960Y015537D02*
X014194Y015537D01*
X014194Y015378D02*
X003960Y015378D01*
X003960Y015220D02*
X014194Y015220D01*
X014194Y015061D02*
X003960Y015061D01*
X003960Y014903D02*
X014194Y014903D01*
X014194Y014744D02*
X003960Y014744D01*
X003960Y014586D02*
X014023Y014586D01*
X013925Y014427D02*
X003960Y014427D01*
X003960Y014269D02*
X013907Y014269D01*
X013955Y014110D02*
X003960Y014110D01*
X003960Y013952D02*
X014118Y013952D01*
X014305Y014305D02*
X014454Y014454D01*
X014454Y017580D01*
X014801Y017122D02*
X015311Y017122D01*
X015369Y016963D02*
X014714Y016963D01*
X014714Y016805D02*
X015426Y016805D01*
X015484Y016646D02*
X014714Y016646D01*
X014714Y016488D02*
X015542Y016488D01*
X015599Y016329D02*
X014714Y016329D01*
X014714Y016171D02*
X015657Y016171D01*
X015714Y016012D02*
X014714Y016012D01*
X014714Y015854D02*
X015772Y015854D01*
X015830Y015695D02*
X014714Y015695D01*
X014714Y015537D02*
X015887Y015537D01*
X015945Y015378D02*
X014714Y015378D01*
X014714Y015220D02*
X016003Y015220D01*
X020440Y021877D02*
X023080Y021877D01*
X023247Y022035D02*
X020551Y022035D01*
X020578Y022194D02*
X023299Y022194D01*
X023181Y022352D02*
X020540Y022352D01*
X020412Y022511D02*
X023170Y022511D01*
X024232Y024413D02*
X029053Y024413D01*
X036105Y031228D02*
X006630Y031228D01*
X006716Y031387D02*
X036077Y031387D01*
X036077Y031545D02*
X006716Y031545D01*
X006716Y031704D02*
X036077Y031704D01*
X036077Y031862D02*
X006716Y031862D01*
X006716Y032021D02*
X036077Y032021D01*
X036077Y032179D02*
X006716Y032179D01*
X006716Y032338D02*
X036077Y032338D01*
X036077Y032496D02*
X006716Y032496D01*
X006716Y032655D02*
X036077Y032655D01*
X036077Y032813D02*
X006716Y032813D01*
X006716Y032972D02*
X036077Y032972D01*
X036077Y033130D02*
X006716Y033130D01*
X006716Y033289D02*
X036077Y033289D01*
X038833Y031070D02*
X003960Y031070D01*
X003960Y030911D02*
X038833Y030911D01*
X038833Y030753D02*
X003960Y030753D01*
X003960Y030594D02*
X038833Y030594D01*
X038833Y030436D02*
X003960Y030436D01*
X003960Y030277D02*
X038833Y030277D01*
X038833Y030119D02*
X003960Y030119D01*
X003960Y029960D02*
X038833Y029960D01*
X038833Y029802D02*
X003960Y029802D01*
X003960Y029643D02*
X038833Y029643D01*
X038833Y029485D02*
X003960Y029485D01*
X003960Y010623D02*
X036670Y010623D01*
X036717Y010465D02*
X003960Y010465D01*
X003960Y010306D02*
X036833Y010306D01*
X037033Y010148D02*
X003960Y010148D01*
X003960Y009989D02*
X036799Y009989D01*
X036714Y009831D02*
X003960Y009831D01*
X003960Y009038D02*
X036845Y009038D01*
X036732Y008880D02*
X003960Y008880D01*
X003960Y008721D02*
X036690Y008721D01*
X036703Y008563D02*
X003960Y008563D01*
X003960Y008404D02*
X036775Y008404D01*
X036953Y008246D02*
X003960Y008246D01*
X003960Y008087D02*
X036866Y008087D01*
X036731Y007929D02*
X003960Y007929D01*
X006716Y002064D02*
X030928Y002064D01*
X031087Y001906D02*
X006716Y001906D01*
X006716Y001747D02*
X036400Y001747D01*
X036400Y001906D02*
X034523Y001906D01*
X034663Y002064D02*
X036400Y002064D01*
X036400Y002223D02*
X034690Y002223D01*
X034761Y002381D02*
X036400Y002381D01*
X036400Y002540D02*
X035657Y002540D01*
X035816Y002698D02*
X036400Y002698D01*
X036400Y002857D02*
X035931Y002857D01*
X035940Y003015D02*
X036400Y003015D01*
X036400Y003174D02*
X035940Y003174D01*
X035940Y003332D02*
X036400Y003332D01*
X036400Y003491D02*
X035940Y003491D01*
X035940Y003649D02*
X036400Y003649D01*
X036400Y003808D02*
X035940Y003808D01*
X035940Y003966D02*
X036400Y003966D01*
X036400Y004125D02*
X035940Y004125D01*
X035940Y004283D02*
X036417Y004283D01*
X036565Y004442D02*
X036059Y004442D01*
X036218Y004600D02*
X038833Y004600D01*
X038833Y004759D02*
X036376Y004759D01*
X036535Y004917D02*
X038833Y004917D01*
X037180Y006680D02*
X036680Y006680D01*
X036430Y006430D01*
X036430Y005805D01*
X035055Y004430D01*
X035055Y003305D01*
X034795Y003649D02*
X034740Y003649D01*
X034740Y003808D02*
X034795Y003808D01*
X034795Y003966D02*
X034740Y003966D01*
X034795Y004125D02*
X034665Y004125D01*
X034795Y004283D02*
X032170Y004283D01*
X032170Y004125D02*
X033239Y004125D01*
X033140Y003966D02*
X032170Y003966D01*
X032170Y003808D02*
X033140Y003808D01*
X033140Y003632D02*
X033140Y003364D01*
X033151Y003323D01*
X033172Y003286D01*
X033202Y003257D01*
X033238Y003236D01*
X033279Y003225D01*
X033508Y003225D01*
X033508Y003632D01*
X033140Y003632D01*
X033140Y003491D02*
X032328Y003491D01*
X032320Y003332D02*
X033149Y003332D01*
X033135Y003015D02*
X032693Y003015D01*
X032707Y003005D02*
X032653Y003044D01*
X032593Y003075D01*
X032530Y003095D01*
X032464Y003106D01*
X032439Y003106D01*
X032439Y002689D01*
X032856Y002689D01*
X032856Y002714D01*
X032845Y002780D01*
X032825Y002843D01*
X032794Y002903D01*
X032755Y002957D01*
X032707Y003005D01*
X032818Y002857D02*
X033021Y002857D01*
X032984Y002698D02*
X032856Y002698D01*
X032832Y002540D02*
X033006Y002540D01*
X033099Y002381D02*
X032733Y002381D01*
X032439Y002698D02*
X032421Y002698D01*
X032421Y002857D02*
X032439Y002857D01*
X032439Y003015D02*
X032421Y003015D01*
X032237Y003174D02*
X034130Y003174D01*
X034130Y003015D02*
X033725Y003015D01*
X033839Y002857D02*
X034021Y002857D01*
X033984Y002698D02*
X033876Y002698D01*
X033854Y002540D02*
X034006Y002540D01*
X034099Y002381D02*
X033761Y002381D01*
X033604Y003332D02*
X033508Y003332D01*
X033508Y003491D02*
X033604Y003491D01*
X033508Y003649D02*
X032270Y003649D01*
X031532Y003491D02*
X030233Y003491D01*
X030315Y003649D02*
X031148Y003649D01*
X031050Y003808D02*
X030315Y003808D01*
X030397Y003966D02*
X031032Y003966D01*
X031080Y004125D02*
X030453Y004125D01*
X030443Y004283D02*
X031190Y004283D01*
X031190Y004442D02*
X030357Y004442D01*
X030055Y004180D02*
X030055Y003680D01*
X029930Y003555D01*
X028180Y003555D01*
X027782Y003491D02*
X026433Y003491D01*
X026548Y003332D02*
X027841Y003332D01*
X028445Y003966D02*
X029713Y003966D01*
X029657Y004125D02*
X028519Y004125D01*
X028504Y004283D02*
X029667Y004283D01*
X029753Y004442D02*
X028421Y004442D01*
X028514Y004600D02*
X031190Y004600D01*
X031190Y004759D02*
X028514Y004759D01*
X028422Y004917D02*
X031190Y004917D01*
X031190Y005076D02*
X028504Y005076D01*
X028519Y005234D02*
X031190Y005234D01*
X031190Y005393D02*
X028447Y005393D01*
X028494Y005551D02*
X031190Y005551D01*
X031190Y005710D02*
X028519Y005710D01*
X028469Y005868D02*
X031190Y005868D01*
X031190Y006027D02*
X028483Y006027D01*
X028519Y006185D02*
X031190Y006185D01*
X031190Y006344D02*
X028479Y006344D01*
X030071Y003332D02*
X031540Y003332D01*
X031623Y003174D02*
X030522Y003174D01*
X030713Y003015D02*
X032167Y003015D01*
X032042Y002857D02*
X030871Y002857D01*
X031030Y002698D02*
X032004Y002698D01*
X032028Y002540D02*
X031188Y002540D01*
X031347Y002381D02*
X032127Y002381D01*
X030430Y002930D02*
X026430Y002930D01*
X026180Y003180D01*
X025940Y002857D02*
X020635Y002857D01*
X020635Y003015D02*
X025227Y003015D01*
X025069Y003174D02*
X020635Y003174D01*
X020624Y003332D02*
X020602Y003400D01*
X020569Y003464D01*
X020635Y002698D02*
X026311Y002698D01*
X032170Y004442D02*
X034795Y004442D01*
X034857Y004600D02*
X034664Y004600D01*
X034647Y004583D02*
X034698Y004633D01*
X034740Y004691D01*
X034772Y004755D01*
X034794Y004823D01*
X034806Y004894D01*
X034806Y004912D01*
X034073Y004912D01*
X034073Y004475D01*
X034386Y004475D01*
X034457Y004486D01*
X034525Y004508D01*
X034589Y004541D01*
X034647Y004583D01*
X034773Y004759D02*
X035016Y004759D01*
X035174Y004917D02*
X034073Y004917D01*
X034073Y004912D02*
X034073Y004948D01*
X034037Y004948D01*
X034037Y004912D01*
X034073Y004912D01*
X034073Y004948D02*
X034806Y004948D01*
X034806Y004966D01*
X034794Y005037D01*
X034772Y005105D01*
X034740Y005169D01*
X034698Y005227D01*
X034647Y005277D01*
X034589Y005319D01*
X034525Y005352D01*
X034457Y005374D01*
X034386Y005385D01*
X034073Y005385D01*
X034073Y004948D01*
X034037Y004948D02*
X034037Y005385D01*
X033724Y005385D01*
X033653Y005374D01*
X033585Y005352D01*
X033521Y005319D01*
X033463Y005277D01*
X033412Y005227D01*
X033370Y005169D01*
X033338Y005105D01*
X033316Y005037D01*
X033304Y004966D01*
X033304Y004948D01*
X034037Y004948D01*
X034037Y004917D02*
X032170Y004917D01*
X032170Y004759D02*
X033337Y004759D01*
X033338Y004755D02*
X033370Y004691D01*
X033412Y004633D01*
X033463Y004583D01*
X033521Y004541D01*
X033585Y004508D01*
X033653Y004486D01*
X033724Y004475D01*
X034037Y004475D01*
X034037Y004912D01*
X033304Y004912D01*
X033304Y004894D01*
X033316Y004823D01*
X033338Y004755D01*
X033446Y004600D02*
X032170Y004600D01*
X032170Y005076D02*
X033328Y005076D01*
X033420Y005234D02*
X032170Y005234D01*
X032170Y005393D02*
X035650Y005393D01*
X035808Y005551D02*
X034643Y005551D01*
X034619Y005527D02*
X034753Y005661D01*
X034826Y005835D01*
X034826Y006025D01*
X034753Y006199D01*
X034619Y006333D01*
X034445Y006405D01*
X033665Y006405D01*
X033491Y006333D01*
X033357Y006199D01*
X033284Y006025D01*
X033284Y005835D01*
X033357Y005661D01*
X033491Y005527D01*
X033665Y005455D01*
X034445Y005455D01*
X034619Y005527D01*
X034773Y005710D02*
X035967Y005710D01*
X036125Y005868D02*
X034826Y005868D01*
X034825Y006027D02*
X036170Y006027D01*
X036170Y006185D02*
X034759Y006185D01*
X034594Y006344D02*
X036170Y006344D01*
X036178Y006502D02*
X032170Y006502D01*
X032170Y006344D02*
X033516Y006344D01*
X033351Y006185D02*
X032170Y006185D01*
X032170Y006027D02*
X033285Y006027D01*
X033284Y005868D02*
X032170Y005868D01*
X032170Y005710D02*
X033337Y005710D01*
X033467Y005551D02*
X032170Y005551D01*
X032170Y006661D02*
X036293Y006661D01*
X036451Y006819D02*
X032170Y006819D01*
X034037Y005234D02*
X034073Y005234D01*
X034073Y005076D02*
X034037Y005076D01*
X034037Y004759D02*
X034073Y004759D01*
X034073Y004600D02*
X034037Y004600D01*
X033943Y004125D02*
X033873Y004125D01*
X033604Y004125D02*
X033508Y004125D01*
X033508Y003966D02*
X033604Y003966D01*
X033604Y003808D02*
X033508Y003808D01*
X034782Y005076D02*
X035333Y005076D01*
X035491Y005234D02*
X034690Y005234D01*
X037198Y008190D02*
X037219Y008190D01*
X037295Y008202D01*
X037368Y008226D01*
X037437Y008261D01*
X037499Y008306D01*
X037554Y008361D01*
X037599Y008423D01*
X037634Y008492D01*
X037658Y008565D01*
X037670Y008641D01*
X037670Y008662D01*
X037198Y008662D01*
X037198Y008190D01*
X037198Y008246D02*
X037162Y008246D01*
X037162Y008404D02*
X037198Y008404D01*
X037198Y008563D02*
X037162Y008563D01*
X037162Y008721D02*
X037198Y008721D01*
X037198Y008880D02*
X037162Y008880D01*
X037162Y009038D02*
X037198Y009038D01*
X037515Y009038D02*
X037845Y009038D01*
X037732Y008880D02*
X037628Y008880D01*
X037670Y008721D02*
X037690Y008721D01*
X037703Y008563D02*
X037657Y008563D01*
X037585Y008404D02*
X037775Y008404D01*
X037953Y008246D02*
X037407Y008246D01*
X037494Y008087D02*
X037866Y008087D01*
X037731Y007929D02*
X037629Y007929D01*
X038162Y008246D02*
X038198Y008246D01*
X038198Y008404D02*
X038162Y008404D01*
X038162Y008563D02*
X038198Y008563D01*
X038198Y008721D02*
X038162Y008721D01*
X038162Y008880D02*
X038198Y008880D01*
X038198Y009038D02*
X038162Y009038D01*
X038162Y009355D02*
X038198Y009355D01*
X038198Y009514D02*
X038162Y009514D01*
X038162Y009831D02*
X038198Y009831D01*
X038198Y009989D02*
X038162Y009989D01*
X038162Y010148D02*
X038198Y010148D01*
X038033Y010148D02*
X037327Y010148D01*
X037198Y010148D02*
X037162Y010148D01*
X037162Y009989D02*
X037198Y009989D01*
X037198Y009831D02*
X037162Y009831D01*
X037162Y009514D02*
X037198Y009514D01*
X037198Y009355D02*
X037162Y009355D01*
X037548Y009355D02*
X037812Y009355D01*
X037719Y009514D02*
X037641Y009514D01*
X037646Y009831D02*
X037714Y009831D01*
X037799Y009989D02*
X037561Y009989D01*
X037527Y010306D02*
X037833Y010306D01*
X037717Y010465D02*
X037643Y010465D01*
X037690Y017914D02*
X037725Y017914D01*
X037690Y018073D02*
X037851Y018073D01*
D21*
X038180Y007680D02*
X037680Y007180D01*
X032180Y007180D01*
X031930Y006930D01*
X031930Y003430D01*
X031430Y003930D02*
X031430Y007430D01*
X031680Y007680D01*
X037180Y007680D01*
X037180Y005680D02*
X038180Y005680D01*
M02*
