G75*
G70*
%OFA0B0*%
%FSLAX24Y24*%
%IPPOS*%
%LPD*%
%AMOC8*
5,1,8,0,0,1.08239X$1,0.0*
%
%ADD10C,0.0000*%
%ADD11C,0.0030*%
D10*
X003680Y004186D02*
X003680Y031430D01*
X006436Y031430D01*
X006436Y033713D01*
X036357Y033713D01*
X036357Y031351D01*
X039113Y031351D01*
X039113Y004186D01*
X036680Y004186D01*
X036680Y001430D01*
X006436Y001430D01*
X006436Y004186D01*
X003680Y004186D01*
X027121Y004180D02*
X027123Y004195D01*
X027128Y004208D01*
X027137Y004220D01*
X027148Y004230D01*
X027162Y004236D01*
X027176Y004239D01*
X027191Y004238D01*
X027205Y004233D01*
X027218Y004225D01*
X027228Y004215D01*
X027235Y004202D01*
X027239Y004187D01*
X027239Y004173D01*
X027235Y004158D01*
X027228Y004145D01*
X027218Y004135D01*
X027205Y004127D01*
X027191Y004122D01*
X027176Y004121D01*
X027162Y004124D01*
X027148Y004130D01*
X027137Y004140D01*
X027128Y004152D01*
X027123Y004165D01*
X027121Y004180D01*
X027621Y004180D02*
X027623Y004195D01*
X027628Y004208D01*
X027637Y004220D01*
X027648Y004230D01*
X027662Y004236D01*
X027676Y004239D01*
X027691Y004238D01*
X027705Y004233D01*
X027718Y004225D01*
X027728Y004215D01*
X027735Y004202D01*
X027739Y004187D01*
X027739Y004173D01*
X027735Y004158D01*
X027728Y004145D01*
X027718Y004135D01*
X027705Y004127D01*
X027691Y004122D01*
X027676Y004121D01*
X027662Y004124D01*
X027648Y004130D01*
X027637Y004140D01*
X027628Y004152D01*
X027623Y004165D01*
X027621Y004180D01*
X028121Y004180D02*
X028123Y004195D01*
X028128Y004208D01*
X028137Y004220D01*
X028148Y004230D01*
X028162Y004236D01*
X028176Y004239D01*
X028191Y004238D01*
X028205Y004233D01*
X028218Y004225D01*
X028228Y004215D01*
X028235Y004202D01*
X028239Y004187D01*
X028239Y004173D01*
X028235Y004158D01*
X028228Y004145D01*
X028218Y004135D01*
X028205Y004127D01*
X028191Y004122D01*
X028176Y004121D01*
X028162Y004124D01*
X028148Y004130D01*
X028137Y004140D01*
X028128Y004152D01*
X028123Y004165D01*
X028121Y004180D01*
X028121Y004680D02*
X028123Y004695D01*
X028128Y004708D01*
X028137Y004720D01*
X028148Y004730D01*
X028162Y004736D01*
X028176Y004739D01*
X028191Y004738D01*
X028205Y004733D01*
X028218Y004725D01*
X028228Y004715D01*
X028235Y004702D01*
X028239Y004687D01*
X028239Y004673D01*
X028235Y004658D01*
X028228Y004645D01*
X028218Y004635D01*
X028205Y004627D01*
X028191Y004622D01*
X028176Y004621D01*
X028162Y004624D01*
X028148Y004630D01*
X028137Y004640D01*
X028128Y004652D01*
X028123Y004665D01*
X028121Y004680D01*
X027621Y004680D02*
X027623Y004695D01*
X027628Y004708D01*
X027637Y004720D01*
X027648Y004730D01*
X027662Y004736D01*
X027676Y004739D01*
X027691Y004738D01*
X027705Y004733D01*
X027718Y004725D01*
X027728Y004715D01*
X027735Y004702D01*
X027739Y004687D01*
X027739Y004673D01*
X027735Y004658D01*
X027728Y004645D01*
X027718Y004635D01*
X027705Y004627D01*
X027691Y004622D01*
X027676Y004621D01*
X027662Y004624D01*
X027648Y004630D01*
X027637Y004640D01*
X027628Y004652D01*
X027623Y004665D01*
X027621Y004680D01*
X027121Y004680D02*
X027123Y004695D01*
X027128Y004708D01*
X027137Y004720D01*
X027148Y004730D01*
X027162Y004736D01*
X027176Y004739D01*
X027191Y004738D01*
X027205Y004733D01*
X027218Y004725D01*
X027228Y004715D01*
X027235Y004702D01*
X027239Y004687D01*
X027239Y004673D01*
X027235Y004658D01*
X027228Y004645D01*
X027218Y004635D01*
X027205Y004627D01*
X027191Y004622D01*
X027176Y004621D01*
X027162Y004624D01*
X027148Y004630D01*
X027137Y004640D01*
X027128Y004652D01*
X027123Y004665D01*
X027121Y004680D01*
X027121Y005180D02*
X027123Y005195D01*
X027128Y005208D01*
X027137Y005220D01*
X027148Y005230D01*
X027162Y005236D01*
X027176Y005239D01*
X027191Y005238D01*
X027205Y005233D01*
X027218Y005225D01*
X027228Y005215D01*
X027235Y005202D01*
X027239Y005187D01*
X027239Y005173D01*
X027235Y005158D01*
X027228Y005145D01*
X027218Y005135D01*
X027205Y005127D01*
X027191Y005122D01*
X027176Y005121D01*
X027162Y005124D01*
X027148Y005130D01*
X027137Y005140D01*
X027128Y005152D01*
X027123Y005165D01*
X027121Y005180D01*
X027121Y005680D02*
X027123Y005695D01*
X027128Y005708D01*
X027137Y005720D01*
X027148Y005730D01*
X027162Y005736D01*
X027176Y005739D01*
X027191Y005738D01*
X027205Y005733D01*
X027218Y005725D01*
X027228Y005715D01*
X027235Y005702D01*
X027239Y005687D01*
X027239Y005673D01*
X027235Y005658D01*
X027228Y005645D01*
X027218Y005635D01*
X027205Y005627D01*
X027191Y005622D01*
X027176Y005621D01*
X027162Y005624D01*
X027148Y005630D01*
X027137Y005640D01*
X027128Y005652D01*
X027123Y005665D01*
X027121Y005680D01*
X027621Y005680D02*
X027623Y005695D01*
X027628Y005708D01*
X027637Y005720D01*
X027648Y005730D01*
X027662Y005736D01*
X027676Y005739D01*
X027691Y005738D01*
X027705Y005733D01*
X027718Y005725D01*
X027728Y005715D01*
X027735Y005702D01*
X027739Y005687D01*
X027739Y005673D01*
X027735Y005658D01*
X027728Y005645D01*
X027718Y005635D01*
X027705Y005627D01*
X027691Y005622D01*
X027676Y005621D01*
X027662Y005624D01*
X027648Y005630D01*
X027637Y005640D01*
X027628Y005652D01*
X027623Y005665D01*
X027621Y005680D01*
X027621Y005180D02*
X027623Y005195D01*
X027628Y005208D01*
X027637Y005220D01*
X027648Y005230D01*
X027662Y005236D01*
X027676Y005239D01*
X027691Y005238D01*
X027705Y005233D01*
X027718Y005225D01*
X027728Y005215D01*
X027735Y005202D01*
X027739Y005187D01*
X027739Y005173D01*
X027735Y005158D01*
X027728Y005145D01*
X027718Y005135D01*
X027705Y005127D01*
X027691Y005122D01*
X027676Y005121D01*
X027662Y005124D01*
X027648Y005130D01*
X027637Y005140D01*
X027628Y005152D01*
X027623Y005165D01*
X027621Y005180D01*
X028121Y005180D02*
X028123Y005195D01*
X028128Y005208D01*
X028137Y005220D01*
X028148Y005230D01*
X028162Y005236D01*
X028176Y005239D01*
X028191Y005238D01*
X028205Y005233D01*
X028218Y005225D01*
X028228Y005215D01*
X028235Y005202D01*
X028239Y005187D01*
X028239Y005173D01*
X028235Y005158D01*
X028228Y005145D01*
X028218Y005135D01*
X028205Y005127D01*
X028191Y005122D01*
X028176Y005121D01*
X028162Y005124D01*
X028148Y005130D01*
X028137Y005140D01*
X028128Y005152D01*
X028123Y005165D01*
X028121Y005180D01*
X028121Y005680D02*
X028123Y005695D01*
X028128Y005708D01*
X028137Y005720D01*
X028148Y005730D01*
X028162Y005736D01*
X028176Y005739D01*
X028191Y005738D01*
X028205Y005733D01*
X028218Y005725D01*
X028228Y005715D01*
X028235Y005702D01*
X028239Y005687D01*
X028239Y005673D01*
X028235Y005658D01*
X028228Y005645D01*
X028218Y005635D01*
X028205Y005627D01*
X028191Y005622D01*
X028176Y005621D01*
X028162Y005624D01*
X028148Y005630D01*
X028137Y005640D01*
X028128Y005652D01*
X028123Y005665D01*
X028121Y005680D01*
X028121Y006180D02*
X028123Y006195D01*
X028128Y006208D01*
X028137Y006220D01*
X028148Y006230D01*
X028162Y006236D01*
X028176Y006239D01*
X028191Y006238D01*
X028205Y006233D01*
X028218Y006225D01*
X028228Y006215D01*
X028235Y006202D01*
X028239Y006187D01*
X028239Y006173D01*
X028235Y006158D01*
X028228Y006145D01*
X028218Y006135D01*
X028205Y006127D01*
X028191Y006122D01*
X028176Y006121D01*
X028162Y006124D01*
X028148Y006130D01*
X028137Y006140D01*
X028128Y006152D01*
X028123Y006165D01*
X028121Y006180D01*
X027621Y006180D02*
X027623Y006195D01*
X027628Y006208D01*
X027637Y006220D01*
X027648Y006230D01*
X027662Y006236D01*
X027676Y006239D01*
X027691Y006238D01*
X027705Y006233D01*
X027718Y006225D01*
X027728Y006215D01*
X027735Y006202D01*
X027739Y006187D01*
X027739Y006173D01*
X027735Y006158D01*
X027728Y006145D01*
X027718Y006135D01*
X027705Y006127D01*
X027691Y006122D01*
X027676Y006121D01*
X027662Y006124D01*
X027648Y006130D01*
X027637Y006140D01*
X027628Y006152D01*
X027623Y006165D01*
X027621Y006180D01*
X027121Y006180D02*
X027123Y006195D01*
X027128Y006208D01*
X027137Y006220D01*
X027148Y006230D01*
X027162Y006236D01*
X027176Y006239D01*
X027191Y006238D01*
X027205Y006233D01*
X027218Y006225D01*
X027228Y006215D01*
X027235Y006202D01*
X027239Y006187D01*
X027239Y006173D01*
X027235Y006158D01*
X027228Y006145D01*
X027218Y006135D01*
X027205Y006127D01*
X027191Y006122D01*
X027176Y006121D01*
X027162Y006124D01*
X027148Y006130D01*
X027137Y006140D01*
X027128Y006152D01*
X027123Y006165D01*
X027121Y006180D01*
D11*
X033516Y003165D02*
X033516Y003117D01*
X033710Y002923D01*
X033710Y002875D01*
X033811Y002875D02*
X034004Y002875D01*
X033811Y003068D01*
X033811Y003117D01*
X033859Y003165D01*
X033956Y003165D01*
X034004Y003117D01*
X034105Y003117D02*
X034154Y003165D01*
X034251Y003165D01*
X034299Y003117D01*
X034299Y002923D01*
X034251Y002875D01*
X034154Y002875D01*
X034105Y002923D01*
X033710Y003165D02*
X033516Y003165D01*
X020510Y016095D02*
X020220Y016095D01*
X020317Y016095D02*
X020317Y016240D01*
X020365Y016288D01*
X020462Y016288D01*
X020510Y016240D01*
X020510Y016095D01*
X020317Y016192D02*
X020220Y016288D01*
X020220Y016390D02*
X020220Y016583D01*
X020220Y016486D02*
X020510Y016486D01*
X020413Y016390D01*
X020413Y016684D02*
X020462Y016684D01*
X020510Y016733D01*
X020510Y016829D01*
X020462Y016878D01*
X020413Y016878D01*
X020365Y016829D01*
X020365Y016733D01*
X020413Y016684D01*
X020365Y016733D02*
X020317Y016684D01*
X020268Y016684D01*
X020220Y016733D01*
X020220Y016829D01*
X020268Y016878D01*
X020317Y016878D01*
X020365Y016829D01*
X014449Y016823D02*
X014401Y016775D01*
X014304Y016775D01*
X014255Y016823D01*
X014154Y016920D02*
X013961Y016920D01*
X013860Y016920D02*
X013763Y016968D01*
X013715Y016968D01*
X013666Y016920D01*
X013666Y016823D01*
X013715Y016775D01*
X013811Y016775D01*
X013860Y016823D01*
X013860Y016920D02*
X013860Y017065D01*
X013666Y017065D01*
X014009Y017065D02*
X014009Y016775D01*
X014154Y016920D02*
X014009Y017065D01*
X014255Y017017D02*
X014304Y017065D01*
X014401Y017065D01*
X014449Y017017D01*
X014449Y016823D01*
X014401Y017625D02*
X014304Y017625D01*
X014255Y017673D01*
X014154Y017770D02*
X013961Y017770D01*
X013860Y017770D02*
X013666Y017770D01*
X013715Y017625D02*
X013715Y017915D01*
X013860Y017770D01*
X014009Y017625D02*
X014009Y017915D01*
X014154Y017770D01*
X014255Y017867D02*
X014304Y017915D01*
X014401Y017915D01*
X014449Y017867D01*
X014449Y017673D01*
X014401Y017625D01*
X014449Y018375D02*
X014449Y018665D01*
X014304Y018665D01*
X014255Y018617D01*
X014255Y018520D01*
X014304Y018472D01*
X014449Y018472D01*
X014352Y018472D02*
X014255Y018375D01*
X014154Y018423D02*
X014106Y018375D01*
X014009Y018375D01*
X013961Y018423D01*
X013961Y018520D01*
X014009Y018568D01*
X014058Y018568D01*
X014154Y018520D01*
X014154Y018665D01*
X013961Y018665D01*
X013860Y018617D02*
X013860Y018568D01*
X013811Y018520D01*
X013666Y018520D01*
X013666Y018423D02*
X013666Y018617D01*
X013715Y018665D01*
X013811Y018665D01*
X013860Y018617D01*
X013860Y018423D02*
X013811Y018375D01*
X013715Y018375D01*
X013666Y018423D01*
X012824Y017840D02*
X012679Y017840D01*
X012630Y017792D01*
X012630Y017695D01*
X012679Y017647D01*
X012824Y017647D01*
X012727Y017647D02*
X012630Y017550D01*
X012529Y017598D02*
X012481Y017550D01*
X012384Y017550D01*
X012336Y017598D01*
X012336Y017647D01*
X012384Y017695D01*
X012529Y017695D01*
X012529Y017598D01*
X012529Y017695D02*
X012433Y017792D01*
X012336Y017840D01*
X012235Y017743D02*
X012138Y017840D01*
X012138Y017550D01*
X012235Y017550D02*
X012041Y017550D01*
X012090Y016990D02*
X012186Y016990D01*
X012235Y016942D01*
X012336Y016990D02*
X012433Y016942D01*
X012529Y016845D01*
X012384Y016845D01*
X012336Y016797D01*
X012336Y016748D01*
X012384Y016700D01*
X012481Y016700D01*
X012529Y016748D01*
X012529Y016845D01*
X012630Y016845D02*
X012679Y016797D01*
X012824Y016797D01*
X012727Y016797D02*
X012630Y016700D01*
X012630Y016845D02*
X012630Y016942D01*
X012679Y016990D01*
X012824Y016990D01*
X012824Y016700D01*
X012235Y016700D02*
X012041Y016893D01*
X012041Y016942D01*
X012090Y016990D01*
X012041Y016700D02*
X012235Y016700D01*
X012824Y017550D02*
X012824Y017840D01*
X013740Y020150D02*
X013836Y020150D01*
X013885Y020198D01*
X013885Y020295D02*
X013788Y020343D01*
X013740Y020343D01*
X013691Y020295D01*
X013691Y020198D01*
X013740Y020150D01*
X013885Y020295D02*
X013885Y020440D01*
X013691Y020440D01*
X013784Y020475D02*
X013784Y020765D01*
X013929Y020620D01*
X013736Y020620D01*
X013635Y020523D02*
X013441Y020717D01*
X013441Y020523D01*
X013490Y020475D01*
X013586Y020475D01*
X013635Y020523D01*
X013635Y020717D01*
X013586Y020765D01*
X013490Y020765D01*
X013441Y020717D01*
X012824Y020765D02*
X012679Y020765D01*
X012630Y020717D01*
X012630Y020620D01*
X012679Y020572D01*
X012824Y020572D01*
X012727Y020572D02*
X012630Y020475D01*
X012529Y020523D02*
X012481Y020475D01*
X012384Y020475D01*
X012336Y020523D01*
X012336Y020572D01*
X012384Y020620D01*
X012529Y020620D01*
X012529Y020523D01*
X012529Y020620D02*
X012433Y020717D01*
X012336Y020765D01*
X012235Y020717D02*
X012186Y020765D01*
X012090Y020765D01*
X012041Y020717D01*
X012235Y020523D01*
X012186Y020475D01*
X012090Y020475D01*
X012041Y020523D01*
X012041Y020717D01*
X012235Y020717D02*
X012235Y020523D01*
X012824Y020475D02*
X012824Y020765D01*
X014030Y020717D02*
X014079Y020765D01*
X014176Y020765D01*
X014224Y020717D01*
X014224Y020523D01*
X014176Y020475D01*
X014079Y020475D01*
X014030Y020523D01*
X014083Y020440D02*
X014083Y020150D01*
X014179Y020150D02*
X013986Y020150D01*
X014179Y020343D02*
X014083Y020440D01*
X014280Y020392D02*
X014280Y020295D01*
X014329Y020247D01*
X014474Y020247D01*
X014377Y020247D02*
X014280Y020150D01*
X014474Y020150D02*
X014474Y020440D01*
X014329Y020440D01*
X014280Y020392D01*
M02*
