%
M48
M72
T01C0.0118
T02C0.0236
T03C0.0354
T04C0.0394
%
T01
X27180Y4180
X27680Y4180
X28180Y4180
X28180Y4680
X28180Y5180
X28180Y5680
X27680Y5680
X27680Y5180
X27680Y4680
X27180Y4680
X27180Y5180
X27180Y5680
X27180Y6180
X27680Y6180
X28180Y6180
T02
X14305Y14305
X15430Y17555
X15430Y18180
X15430Y18805
X15430Y19430
X15430Y20055
X15430Y20930
X16055Y21055
X16805Y21055
X19930Y23180
X20180Y22180
X23430Y21680
X23430Y20805
X22305Y19555
X22930Y19305
X21430Y18055
X22805Y17180
X22805Y16305
X20055Y17680
X19680Y15430
X25930Y11430
X31930Y15180
X30930Y17930
X27680Y21430
X28680Y22180
X24055Y24055
X23430Y24680
X29180Y28930
X11930Y21180
X11430Y20180
X25555Y6080
X25555Y5055
X24554Y4554
X26180Y3180
X28180Y3555
X30055Y4180
X31430Y3930
X31930Y3430
X32930Y3430
X35055Y3305
T03
X34430Y2680
X33430Y2680
X32430Y2680
T04
X34055Y4930
X34055Y5930
X37180Y5680
X38180Y5680
X38180Y6680
X37180Y6680
X37180Y7680
X38180Y7680
X38180Y8680
X38180Y9680
X37180Y9680
X37180Y8680
X37180Y10680
X38180Y10680
X38180Y11680
X37180Y11680
X37180Y12680
X38180Y12680
X38180Y13680
X38180Y14680
X37180Y14680
X37180Y13680
X37180Y15680
X38180Y15680
X38180Y16680
X37180Y16680
X37180Y17680
X38180Y17680
X20180Y2930
X19180Y2930
M30
