G75*
G70*
%OFA0B0*%
%FSLAX24Y24*%
%IPPOS*%
%LPD*%
%AMOC8*
5,1,8,0,0,1.08239X$1,0.0*
%
%ADD10R,0.0690X0.0206*%
%ADD11R,0.1005X0.1517*%
%ADD12C,0.0060*%
%ADD13R,0.1339X0.2559*%
%ADD14C,0.0178*%
%ADD15R,0.0572X0.0651*%
%ADD16R,0.0651X0.0572*%
%ADD17R,0.0520X0.0690*%
%ADD18C,0.0651*%
%ADD19C,0.0591*%
%ADD20R,0.0640X0.0200*%
%ADD21R,0.1140X0.1930*%
%ADD22R,0.0690X0.0572*%
%ADD23R,0.0729X0.0769*%
%ADD24R,0.0572X0.0690*%
%ADD25R,0.0769X0.0729*%
%ADD26R,0.1044X0.1064*%
%ADD27R,0.1080X0.2930*%
%ADD28R,0.1438X0.2068*%
%ADD29R,0.0720X0.0720*%
%ADD30C,0.0720*%
%ADD31C,0.0496*%
D10*
X026490Y004030D03*
X026490Y004280D03*
X026490Y004540D03*
X026490Y004800D03*
X026490Y005050D03*
X026490Y005310D03*
X026490Y005560D03*
X026490Y005820D03*
X026490Y006080D03*
X026490Y006330D03*
X028870Y006330D03*
X028870Y006080D03*
X028870Y005820D03*
X028870Y005560D03*
X028870Y005310D03*
X028870Y005050D03*
X028870Y004800D03*
X028870Y004540D03*
X028870Y004280D03*
X028870Y004030D03*
D11*
X027680Y005180D03*
D12*
X027790Y005849D02*
X027910Y005849D01*
X027910Y005967D01*
X027790Y005967D01*
X027790Y005849D01*
X027570Y005850D02*
X027450Y005850D01*
X027450Y005970D01*
X027570Y005970D01*
X027570Y005850D01*
X027570Y004510D02*
X027450Y004510D01*
X027450Y004390D01*
X027570Y004390D01*
X027570Y004510D01*
X027790Y004510D02*
X027910Y004510D01*
X027910Y004390D01*
X027790Y004390D01*
X027790Y004510D01*
D13*
X027680Y005180D03*
D14*
X027680Y005180D03*
X027680Y004680D03*
X027180Y004680D03*
X027180Y005180D03*
X027180Y005680D03*
X027680Y005680D03*
X028180Y005680D03*
X028180Y005180D03*
X028180Y004680D03*
X028180Y004180D03*
X027680Y004180D03*
X027180Y004180D03*
X027180Y006180D03*
X027680Y006180D03*
X028180Y006180D03*
D15*
X024554Y005180D03*
X023806Y005180D03*
X025406Y016030D03*
X026154Y016030D03*
X028031Y020480D03*
X028779Y020480D03*
D16*
X033180Y020279D03*
X033180Y019531D03*
X028455Y013154D03*
X028455Y012406D03*
X031680Y006079D03*
X031680Y005331D03*
X032555Y005306D03*
X032555Y006054D03*
X029930Y003429D03*
X029930Y002681D03*
X020955Y004081D03*
X020955Y004829D03*
X017630Y016156D03*
X017630Y016904D03*
X016730Y016904D03*
X016730Y016156D03*
X015780Y016156D03*
X015780Y016904D03*
X012680Y020556D03*
X012680Y021304D03*
X033355Y030781D03*
X033355Y031529D03*
D17*
X028780Y002930D03*
X028180Y002930D03*
X027580Y002930D03*
X025280Y002930D03*
X024680Y002930D03*
X024080Y002930D03*
D18*
X020180Y002635D02*
X020180Y003225D01*
X019180Y003225D02*
X019180Y002635D01*
X033760Y004930D02*
X034350Y004930D01*
X034350Y005930D02*
X033760Y005930D01*
D19*
X033430Y002680D03*
X032430Y002680D03*
X034430Y002680D03*
D20*
X020040Y018020D03*
X020040Y018270D03*
X020040Y018530D03*
X020040Y018780D03*
X020040Y019040D03*
X020040Y019300D03*
X020040Y019550D03*
X020040Y019810D03*
X020040Y020060D03*
X020040Y020320D03*
X020040Y020580D03*
X020040Y020830D03*
X020040Y021090D03*
X020040Y021340D03*
X017820Y021340D03*
X017820Y021090D03*
X017820Y020830D03*
X017820Y020580D03*
X017820Y020320D03*
X017820Y020060D03*
X017820Y019810D03*
X017820Y019550D03*
X017820Y019300D03*
X017820Y019040D03*
X017820Y018780D03*
X017820Y018530D03*
X017820Y018270D03*
X017820Y018020D03*
D21*
X018930Y019680D03*
D22*
X018880Y016954D03*
X018880Y016206D03*
X019730Y016206D03*
X019730Y016954D03*
D23*
X024480Y011487D03*
X024480Y009873D03*
X028380Y014373D03*
X028380Y015987D03*
X028005Y017673D03*
X028005Y019287D03*
X029755Y019287D03*
X029755Y017673D03*
D24*
X031456Y017780D03*
X032204Y017780D03*
X032279Y019055D03*
X031531Y019055D03*
X027404Y011455D03*
X026656Y011455D03*
X026581Y010505D03*
X027329Y010505D03*
X029306Y029430D03*
X030054Y029430D03*
X030054Y030305D03*
X029306Y030305D03*
D25*
X028873Y031930D03*
X030487Y031930D03*
D26*
X031830Y031749D03*
X031830Y029761D03*
X034680Y020999D03*
X034680Y019011D03*
X029730Y013124D03*
X029730Y011136D03*
X022030Y004999D03*
X022030Y003011D03*
X014430Y019686D03*
X014430Y021674D03*
D27*
X025005Y013680D03*
X026855Y013680D03*
X029755Y021430D03*
X031605Y021430D03*
X027730Y030930D03*
X025880Y030930D03*
D28*
X025205Y007680D03*
X023405Y007680D03*
D29*
X037180Y017680D03*
D30*
X038180Y017680D03*
X038180Y016680D03*
X037180Y016680D03*
X037180Y015680D03*
X038180Y015680D03*
X038180Y014680D03*
X038180Y013680D03*
X037180Y013680D03*
X037180Y014680D03*
X037180Y012680D03*
X038180Y012680D03*
X038180Y011680D03*
X037180Y011680D03*
X037180Y010680D03*
X038180Y010680D03*
X038180Y009680D03*
X038180Y008680D03*
X037180Y008680D03*
X037180Y009680D03*
X037180Y007680D03*
X038180Y007680D03*
X038180Y006680D03*
X037180Y006680D03*
X037180Y005680D03*
X038180Y005680D03*
D31*
X014305Y014305D03*
X015430Y017555D03*
X015430Y018180D03*
X015430Y018805D03*
X015430Y019430D03*
X015430Y020055D03*
X015430Y020930D03*
X016055Y021055D03*
X016805Y021055D03*
X019930Y023180D03*
X020180Y022180D03*
X023430Y021680D03*
X023430Y020805D03*
X022305Y019555D03*
X022930Y019305D03*
X021430Y018055D03*
X022805Y017180D03*
X022805Y016305D03*
X020055Y017680D03*
X019680Y015430D03*
X025930Y011430D03*
X031930Y015180D03*
X030930Y017930D03*
X027680Y021430D03*
X028680Y022180D03*
X024055Y024055D03*
X023430Y024680D03*
X029180Y028930D03*
X011930Y021180D03*
X011430Y020180D03*
X025555Y006080D03*
X025555Y005055D03*
X024554Y004554D03*
X026180Y003180D03*
X028180Y003555D03*
X030055Y004180D03*
X031430Y003930D03*
X031930Y003430D03*
X032930Y003430D03*
X035055Y003305D03*
M02*
