G75*
%MOIN*%
%OFA0B0*%
%FSLAX25Y25*%
%IPPOS*%
%LPD*%
%AMOC8*
5,1,8,0,0,1.08239X$1,0.0*
%
%ADD10R,0.06706X0.05918*%
%ADD11R,0.05918X0.07099*%
%ADD12R,0.07099X0.05918*%
%ADD13R,0.05524X0.01981*%
%ADD14R,0.06398X0.01378*%
%ADD15R,0.01378X0.06398*%
%ADD16R,0.07200X0.07200*%
%ADD17C,0.07200*%
%ADD18R,0.07225X0.07225*%
%ADD19C,0.07225*%
%ADD20R,0.06350X0.06350*%
%ADD21C,0.06350*%
%ADD22R,0.09461X0.03162*%
%ADD23C,0.07400*%
%ADD24R,0.05918X0.06706*%
%ADD25R,0.11500X0.06500*%
%ADD26C,0.06400*%
%ADD27R,0.07400X0.07400*%
%ADD28OC8,0.07200*%
%ADD29C,0.05950*%
%ADD30C,0.12611*%
D10*
X0172850Y0078960D03*
X0172850Y0086440D03*
X0173050Y0134360D03*
X0173050Y0141840D03*
X0172650Y0200860D03*
X0172650Y0208340D03*
X0077850Y0257860D03*
X0077850Y0265340D03*
X0069100Y0265340D03*
X0069100Y0257860D03*
X0077850Y0274110D03*
X0077850Y0281590D03*
X0314600Y0159340D03*
X0314600Y0151860D03*
D11*
X0273090Y0155100D03*
X0265610Y0155100D03*
X0256840Y0154600D03*
X0249360Y0154600D03*
X0248840Y0219850D03*
X0241360Y0219850D03*
X0258110Y0219850D03*
X0265590Y0219850D03*
X0259340Y0289350D03*
X0251860Y0289350D03*
X0242840Y0289100D03*
X0235360Y0289100D03*
X0333860Y0301400D03*
X0341340Y0301400D03*
X0344840Y0098100D03*
X0337360Y0098100D03*
X0097840Y0052850D03*
X0090360Y0052850D03*
X0076590Y0248800D03*
X0069110Y0248800D03*
D12*
X0086600Y0257860D03*
X0086600Y0265340D03*
X0069100Y0274110D03*
X0069100Y0281590D03*
X0148800Y0297660D03*
X0148800Y0305140D03*
X0186800Y0209440D03*
X0186800Y0201960D03*
X0189000Y0141840D03*
X0189000Y0134360D03*
X0189300Y0088540D03*
X0189300Y0081060D03*
X0056400Y0114160D03*
X0056400Y0121640D03*
X0056500Y0133860D03*
X0056500Y0141340D03*
X0056200Y0153760D03*
X0056200Y0161240D03*
X0056300Y0175360D03*
X0056300Y0182840D03*
X0337400Y0237260D03*
X0337400Y0244740D03*
X0339500Y0176440D03*
X0339500Y0168960D03*
D13*
X0329419Y0144943D03*
X0329419Y0142383D03*
X0329419Y0139824D03*
X0329419Y0137265D03*
X0312785Y0137265D03*
X0312785Y0139824D03*
X0312785Y0142383D03*
X0312785Y0144943D03*
X0315785Y0210265D03*
X0315785Y0212824D03*
X0315785Y0215383D03*
X0315785Y0217943D03*
X0332419Y0217943D03*
X0332419Y0215383D03*
X0332419Y0212824D03*
X0332419Y0210265D03*
X0329919Y0277765D03*
X0329919Y0280324D03*
X0329919Y0282883D03*
X0329919Y0285443D03*
X0313285Y0285443D03*
X0313285Y0282883D03*
X0313285Y0280324D03*
X0313285Y0277765D03*
X0325785Y0080443D03*
X0325785Y0077883D03*
X0325785Y0075324D03*
X0325785Y0072765D03*
X0342419Y0072765D03*
X0342419Y0075324D03*
X0342419Y0077883D03*
X0342419Y0080443D03*
D14*
X0279090Y0067399D03*
X0279090Y0065431D03*
X0279090Y0063462D03*
X0279090Y0061494D03*
X0279090Y0059525D03*
X0279090Y0057557D03*
X0279090Y0055588D03*
X0279090Y0053620D03*
X0279090Y0051651D03*
X0279090Y0049683D03*
X0279090Y0047714D03*
X0279090Y0045746D03*
X0279090Y0043777D03*
X0279090Y0041809D03*
X0279090Y0039840D03*
X0279090Y0037872D03*
X0234110Y0037872D03*
X0234110Y0039840D03*
X0234110Y0041809D03*
X0234110Y0043777D03*
X0234110Y0045746D03*
X0234110Y0047714D03*
X0234110Y0049683D03*
X0234110Y0051651D03*
X0234110Y0053620D03*
X0234110Y0055588D03*
X0234110Y0057557D03*
X0234110Y0059525D03*
X0234110Y0061494D03*
X0234110Y0063462D03*
X0234110Y0065431D03*
X0234110Y0067399D03*
D15*
X0241836Y0075126D03*
X0243805Y0075126D03*
X0245773Y0075126D03*
X0247742Y0075126D03*
X0249710Y0075126D03*
X0251679Y0075126D03*
X0253647Y0075126D03*
X0255616Y0075126D03*
X0257584Y0075126D03*
X0259553Y0075126D03*
X0261521Y0075126D03*
X0263490Y0075126D03*
X0265458Y0075126D03*
X0267427Y0075126D03*
X0269395Y0075126D03*
X0271364Y0075126D03*
X0271364Y0030145D03*
X0269395Y0030145D03*
X0267427Y0030145D03*
X0265458Y0030145D03*
X0263490Y0030145D03*
X0261521Y0030145D03*
X0259553Y0030145D03*
X0257584Y0030145D03*
X0255616Y0030145D03*
X0253647Y0030145D03*
X0251679Y0030145D03*
X0249710Y0030145D03*
X0247742Y0030145D03*
X0245773Y0030145D03*
X0243805Y0030145D03*
X0241836Y0030145D03*
D16*
X0071600Y0064100D03*
D17*
X0081600Y0064100D03*
X0091600Y0064100D03*
X0101600Y0064100D03*
X0111600Y0064100D03*
D18*
X0144100Y0054100D03*
X0066600Y0054100D03*
D19*
X0066600Y0044100D03*
X0066600Y0034100D03*
X0066600Y0024100D03*
X0144100Y0024100D03*
X0144100Y0034100D03*
X0144100Y0044100D03*
D20*
X0166600Y0024100D03*
D21*
X0166600Y0034100D03*
X0176600Y0034100D03*
X0176600Y0024100D03*
X0186600Y0024100D03*
X0186600Y0034100D03*
D22*
X0114336Y0034100D03*
X0114336Y0029100D03*
X0114336Y0039100D03*
X0114336Y0044100D03*
X0093864Y0044100D03*
X0093864Y0039100D03*
X0093864Y0034100D03*
X0093864Y0029100D03*
D23*
X0031600Y0061600D03*
X0041600Y0061600D03*
X0041600Y0071600D03*
X0031600Y0071600D03*
X0031600Y0081600D03*
X0041600Y0081600D03*
X0041600Y0091600D03*
X0041600Y0101600D03*
X0031600Y0101600D03*
X0031600Y0091600D03*
X0031600Y0111600D03*
X0041600Y0111600D03*
X0041600Y0121600D03*
X0031600Y0121600D03*
X0031600Y0131600D03*
X0041600Y0131600D03*
X0041600Y0141600D03*
X0031600Y0141600D03*
X0031600Y0151600D03*
X0041600Y0151600D03*
X0041600Y0161600D03*
X0041600Y0171600D03*
X0031600Y0171600D03*
X0031600Y0161600D03*
X0041600Y0181600D03*
X0161600Y0299100D03*
X0194800Y0319100D03*
X0226600Y0274100D03*
X0205350Y0250350D03*
X0199100Y0236600D03*
X0229100Y0204100D03*
X0201600Y0184100D03*
X0201600Y0169100D03*
X0223000Y0145100D03*
X0201600Y0114100D03*
X0292200Y0076600D03*
X0076600Y0034100D03*
X0076600Y0024100D03*
D24*
X0318610Y0225350D03*
X0326090Y0225350D03*
X0324090Y0292850D03*
X0316610Y0292850D03*
X0329110Y0087850D03*
X0336590Y0087850D03*
D25*
X0154100Y0081600D03*
X0154100Y0136600D03*
X0151600Y0204100D03*
D26*
X0296600Y0049850D03*
X0296600Y0030850D03*
D27*
X0031600Y0181600D03*
D28*
X0356600Y0181600D03*
X0356600Y0171600D03*
X0356600Y0161600D03*
X0356600Y0151600D03*
X0356600Y0141600D03*
X0356600Y0131600D03*
X0356600Y0121600D03*
X0356600Y0111600D03*
X0356600Y0101600D03*
X0366600Y0101600D03*
X0366600Y0111600D03*
X0366600Y0121600D03*
X0366600Y0131600D03*
X0366600Y0141600D03*
X0366600Y0151600D03*
X0366600Y0161600D03*
X0366600Y0171600D03*
X0366600Y0181600D03*
X0366600Y0191600D03*
X0366600Y0201600D03*
X0366600Y0211600D03*
X0366600Y0221600D03*
X0366600Y0231600D03*
X0366600Y0241600D03*
X0366600Y0251600D03*
X0366600Y0261600D03*
X0366600Y0271600D03*
X0366600Y0281600D03*
X0366600Y0291600D03*
X0356600Y0291600D03*
X0356600Y0281600D03*
X0356600Y0271600D03*
X0356600Y0261600D03*
X0356600Y0251600D03*
X0356600Y0241600D03*
X0356600Y0231600D03*
X0356600Y0221600D03*
X0356600Y0211600D03*
X0356600Y0201600D03*
X0356600Y0191600D03*
D29*
X0163650Y0207750D03*
X0139100Y0200350D03*
X0166150Y0140350D03*
X0140350Y0132850D03*
X0166050Y0085350D03*
X0140250Y0079050D03*
X0092750Y0275250D03*
D30*
X0062850Y0329100D03*
X0340350Y0329100D03*
X0340350Y0026600D03*
M02*
