G75*
%MOIN*%
%OFA0B0*%
%FSLAX25Y25*%
%IPPOS*%
%LPD*%
%AMOC8*
5,1,8,0,0,1.08239X$1,0.0*
%
%ADD10R,0.06706X0.05918*%
%ADD11R,0.05918X0.07099*%
%ADD12R,0.07099X0.05918*%
%ADD13R,0.06200X0.02600*%
%ADD14R,0.02400X0.04200*%
%ADD15R,0.10400X0.08300*%
%ADD16R,0.13143X0.20288*%
%ADD17R,0.07000X0.03000*%
%ADD18R,0.11000X0.29500*%
%ADD19R,0.05603X0.03241*%
%ADD20R,0.09461X0.03162*%
%ADD21R,0.06312X0.04737*%
%ADD22R,0.14580X0.20879*%
%ADD23R,0.07200X0.07200*%
%ADD24C,0.07200*%
%ADD25R,0.05524X0.05524*%
%ADD26R,0.05918X0.06706*%
%ADD27R,0.07225X0.07225*%
%ADD28C,0.07225*%
%ADD29R,0.06350X0.06350*%
%ADD30C,0.06350*%
%ADD31C,0.07400*%
%ADD32R,0.07493X0.07887*%
%ADD33R,0.10839X0.10643*%
%ADD34R,0.10643X0.10839*%
%ADD35R,0.07887X0.07493*%
%ADD36C,0.06400*%
%ADD37R,0.07400X0.07400*%
%ADD38OC8,0.07200*%
%ADD39R,0.20879X0.14580*%
%ADD40C,0.05950*%
%ADD41C,0.12611*%
D10*
X0159100Y0095360D03*
X0159100Y0102840D03*
X0159100Y0151610D03*
X0159100Y0159090D03*
X0218450Y0161240D03*
X0218450Y0153760D03*
X0284350Y0150360D03*
X0284350Y0157840D03*
X0291600Y0216610D03*
X0291600Y0224090D03*
X0286150Y0288360D03*
X0286150Y0295840D03*
X0209100Y0295340D03*
X0209100Y0287860D03*
X0212400Y0225590D03*
X0212400Y0218110D03*
X0155350Y0217860D03*
X0155350Y0225340D03*
X0051600Y0275360D03*
X0051600Y0282840D03*
X0276600Y0090340D03*
X0276600Y0082860D03*
X0276600Y0074090D03*
X0276600Y0066610D03*
X0260350Y0052840D03*
X0260350Y0045360D03*
X0310350Y0077860D03*
X0310350Y0085340D03*
X0311600Y0052840D03*
X0311600Y0045360D03*
X0311600Y0035340D03*
X0311600Y0027860D03*
D11*
X0180340Y0077850D03*
X0172860Y0077850D03*
X0172860Y0086600D03*
X0180340Y0086600D03*
X0180340Y0132850D03*
X0172860Y0132850D03*
X0172860Y0141600D03*
X0180340Y0141600D03*
X0177840Y0200350D03*
X0170360Y0200350D03*
X0170360Y0209100D03*
X0177840Y0209100D03*
X0145240Y0261400D03*
X0137760Y0261400D03*
X0106590Y0044100D03*
X0099110Y0044100D03*
D12*
X0094100Y0032840D03*
X0094100Y0025360D03*
X0085350Y0025360D03*
X0085350Y0032840D03*
X0166600Y0045360D03*
X0166600Y0052840D03*
X0176600Y0052840D03*
X0176600Y0045360D03*
X0186600Y0045360D03*
X0186600Y0052840D03*
X0234100Y0052840D03*
X0242850Y0052840D03*
X0251600Y0052840D03*
X0251600Y0045360D03*
X0242850Y0045360D03*
X0234100Y0045360D03*
X0319100Y0061610D03*
X0319100Y0069090D03*
X0327850Y0069090D03*
X0327850Y0061610D03*
X0336600Y0061360D03*
X0336600Y0068840D03*
X0336600Y0077860D03*
X0336600Y0085340D03*
X0327850Y0085340D03*
X0327850Y0077860D03*
X0319100Y0077860D03*
X0319100Y0085340D03*
X0315350Y0127860D03*
X0315350Y0135340D03*
X0324100Y0135340D03*
X0324100Y0127860D03*
X0332850Y0127860D03*
X0332850Y0135340D03*
X0332850Y0144110D03*
X0332850Y0151590D03*
X0324100Y0151590D03*
X0324100Y0144110D03*
X0315350Y0144110D03*
X0315350Y0151590D03*
X0306600Y0151590D03*
X0306600Y0144110D03*
X0297850Y0144110D03*
X0297850Y0151590D03*
X0297850Y0135340D03*
X0297850Y0127860D03*
X0306600Y0127860D03*
X0306600Y0135340D03*
X0309100Y0199110D03*
X0309100Y0206590D03*
X0317850Y0206590D03*
X0317850Y0199110D03*
X0326600Y0199110D03*
X0326600Y0206590D03*
X0326600Y0215360D03*
X0326600Y0222840D03*
X0317850Y0222840D03*
X0317850Y0215360D03*
X0309100Y0215360D03*
X0309100Y0222840D03*
X0306600Y0266610D03*
X0306600Y0274090D03*
X0306600Y0282860D03*
X0306600Y0290340D03*
X0315350Y0290340D03*
X0315350Y0282860D03*
X0324100Y0282860D03*
X0324100Y0290340D03*
X0324100Y0274340D03*
X0324100Y0266860D03*
X0315350Y0266610D03*
X0315350Y0274090D03*
X0164100Y0307860D03*
X0164100Y0315340D03*
X0145350Y0277140D03*
X0145350Y0269660D03*
D13*
X0085250Y0270380D03*
X0085250Y0272939D03*
X0085250Y0267820D03*
X0085250Y0265261D03*
X0067950Y0265261D03*
X0067950Y0267820D03*
X0067950Y0270380D03*
X0067950Y0272939D03*
D14*
X0127661Y0272900D03*
X0130220Y0272900D03*
X0132780Y0272900D03*
X0135339Y0272900D03*
X0135339Y0285300D03*
X0132780Y0285300D03*
X0130220Y0285300D03*
X0127661Y0285300D03*
D15*
X0131500Y0280446D03*
D16*
X0115350Y0306600D03*
X0080350Y0306600D03*
D17*
X0147000Y0210340D03*
X0147000Y0206600D03*
X0147000Y0202860D03*
X0156200Y0202860D03*
X0156200Y0206600D03*
X0156200Y0210340D03*
X0158700Y0142840D03*
X0158700Y0139100D03*
X0158700Y0135360D03*
X0149500Y0135360D03*
X0149500Y0139100D03*
X0149500Y0142840D03*
X0149500Y0087840D03*
X0149500Y0084100D03*
X0149500Y0080360D03*
X0158700Y0080360D03*
X0158700Y0084100D03*
X0158700Y0087840D03*
D18*
X0169850Y0106600D03*
X0188350Y0106600D03*
X0188350Y0161600D03*
X0169850Y0161600D03*
X0167350Y0229100D03*
X0185850Y0229100D03*
D19*
X0221482Y0224590D03*
X0221482Y0220850D03*
X0221482Y0217110D03*
X0231718Y0217110D03*
X0231718Y0220850D03*
X0231718Y0224590D03*
X0229218Y0285360D03*
X0229218Y0289100D03*
X0229218Y0292840D03*
X0218982Y0292840D03*
X0218982Y0289100D03*
X0218982Y0285360D03*
X0229482Y0158340D03*
X0229482Y0154600D03*
X0229482Y0150860D03*
X0239718Y0150860D03*
X0239718Y0154600D03*
X0239718Y0158340D03*
X0286482Y0089740D03*
X0286482Y0086000D03*
X0286482Y0082260D03*
X0296718Y0082260D03*
X0296718Y0086000D03*
X0296718Y0089740D03*
D20*
X0300586Y0170600D03*
X0300586Y0175600D03*
X0300586Y0180600D03*
X0300586Y0185600D03*
X0280114Y0185600D03*
X0280114Y0180600D03*
X0280114Y0175600D03*
X0280114Y0170600D03*
X0243586Y0170600D03*
X0243586Y0175600D03*
X0243586Y0180600D03*
X0243586Y0185600D03*
X0223114Y0185600D03*
X0223114Y0180600D03*
X0223114Y0175600D03*
X0223114Y0170600D03*
X0215864Y0237350D03*
X0215864Y0242350D03*
X0215864Y0247350D03*
X0215864Y0252350D03*
X0236336Y0252350D03*
X0236336Y0247350D03*
X0236336Y0242350D03*
X0236336Y0237350D03*
X0271364Y0236350D03*
X0271364Y0241350D03*
X0271364Y0246350D03*
X0271364Y0251350D03*
X0291836Y0251350D03*
X0291836Y0246350D03*
X0291836Y0241350D03*
X0291836Y0236350D03*
X0286836Y0304100D03*
X0286836Y0309100D03*
X0286836Y0314100D03*
X0286836Y0319100D03*
X0266364Y0319100D03*
X0266364Y0314100D03*
X0266364Y0309100D03*
X0266364Y0304100D03*
X0231836Y0304100D03*
X0231836Y0309100D03*
X0231836Y0314100D03*
X0231836Y0319100D03*
X0211364Y0319100D03*
X0211364Y0314100D03*
X0211364Y0309100D03*
X0211364Y0304100D03*
D21*
X0289769Y0107840D03*
X0289769Y0100360D03*
X0298431Y0104100D03*
D22*
X0312600Y0105350D03*
X0330600Y0105350D03*
X0333100Y0176600D03*
X0315100Y0176600D03*
X0307600Y0242850D03*
X0325600Y0242850D03*
X0318100Y0310350D03*
X0300100Y0310350D03*
D23*
X0071600Y0064100D03*
D24*
X0081600Y0064100D03*
X0091600Y0064100D03*
X0101600Y0064100D03*
X0111600Y0064100D03*
D25*
X0064934Y0122000D03*
X0056666Y0122000D03*
X0056266Y0142100D03*
X0064534Y0142100D03*
X0064334Y0162200D03*
X0056066Y0162200D03*
X0055966Y0183400D03*
X0064234Y0183400D03*
X0186400Y0200666D03*
X0186400Y0208934D03*
X0189100Y0142034D03*
X0189100Y0133766D03*
X0189000Y0085734D03*
X0189000Y0077466D03*
X0234100Y0036984D03*
X0234100Y0028716D03*
X0242850Y0028716D03*
X0242850Y0036984D03*
X0251600Y0036984D03*
X0251600Y0028716D03*
X0342800Y0107066D03*
X0342800Y0115334D03*
X0341834Y0161700D03*
X0333566Y0161700D03*
X0337600Y0251666D03*
X0337600Y0259934D03*
X0334566Y0309200D03*
X0342834Y0309200D03*
X0155800Y0307066D03*
X0155800Y0315334D03*
D26*
X0201860Y0279100D03*
X0209340Y0279100D03*
X0116840Y0226150D03*
X0109360Y0226150D03*
X0109360Y0133100D03*
X0116840Y0133100D03*
X0116340Y0081100D03*
X0108860Y0081100D03*
X0115360Y0044100D03*
X0122840Y0044100D03*
X0114090Y0024100D03*
X0106610Y0024100D03*
X0217610Y0061600D03*
X0225090Y0061600D03*
X0234110Y0061600D03*
X0241590Y0061600D03*
X0251610Y0064100D03*
X0259090Y0064100D03*
X0258840Y0073100D03*
X0251360Y0073100D03*
X0270610Y0053100D03*
X0278090Y0053100D03*
X0277840Y0044100D03*
X0270360Y0044100D03*
D27*
X0144100Y0054100D03*
X0066600Y0054100D03*
D28*
X0066600Y0044100D03*
X0066600Y0034100D03*
X0066600Y0024100D03*
X0144100Y0024100D03*
X0144100Y0034100D03*
X0144100Y0044100D03*
D29*
X0166600Y0024100D03*
D30*
X0166600Y0034100D03*
X0176600Y0034100D03*
X0176600Y0024100D03*
X0186600Y0024100D03*
X0186600Y0034100D03*
D31*
X0031600Y0061600D03*
X0041600Y0061600D03*
X0041600Y0071600D03*
X0031600Y0071600D03*
X0031600Y0081600D03*
X0041600Y0081600D03*
X0041600Y0091600D03*
X0041600Y0101600D03*
X0031600Y0101600D03*
X0031600Y0091600D03*
X0031600Y0111600D03*
X0041600Y0111600D03*
X0041600Y0121600D03*
X0031600Y0121600D03*
X0031600Y0131600D03*
X0041600Y0131600D03*
X0041600Y0141600D03*
X0031600Y0141600D03*
X0031600Y0151600D03*
X0041600Y0151600D03*
X0041600Y0161600D03*
X0041600Y0171600D03*
X0031600Y0171600D03*
X0031600Y0161600D03*
X0041600Y0181600D03*
X0161600Y0299100D03*
X0194800Y0319100D03*
X0226600Y0274100D03*
X0205350Y0250350D03*
X0199100Y0236600D03*
X0229100Y0204100D03*
X0201600Y0184100D03*
X0201600Y0169100D03*
X0223000Y0145100D03*
X0201600Y0114100D03*
X0292200Y0076600D03*
X0076600Y0034100D03*
X0076600Y0024100D03*
D32*
X0215600Y0080279D03*
X0215600Y0096421D03*
D33*
X0121041Y0092100D03*
X0101159Y0092100D03*
X0101159Y0144100D03*
X0121041Y0144100D03*
X0122891Y0215150D03*
X0103009Y0215150D03*
D34*
X0158200Y0266009D03*
X0173600Y0265659D03*
X0189600Y0265909D03*
X0189600Y0285791D03*
X0173600Y0285541D03*
X0158200Y0285891D03*
X0199850Y0223541D03*
X0199850Y0203659D03*
X0202100Y0156041D03*
X0202100Y0136159D03*
X0201850Y0096041D03*
X0201850Y0076159D03*
X0039100Y0266159D03*
X0039100Y0286041D03*
D35*
X0131429Y0297200D03*
X0147571Y0297200D03*
D36*
X0296600Y0049850D03*
X0296600Y0030850D03*
D37*
X0031600Y0181600D03*
D38*
X0356600Y0181600D03*
X0356600Y0171600D03*
X0356600Y0161600D03*
X0356600Y0151600D03*
X0356600Y0141600D03*
X0356600Y0131600D03*
X0356600Y0121600D03*
X0356600Y0111600D03*
X0356600Y0101600D03*
X0366600Y0101600D03*
X0366600Y0111600D03*
X0366600Y0121600D03*
X0366600Y0131600D03*
X0366600Y0141600D03*
X0366600Y0151600D03*
X0366600Y0161600D03*
X0366600Y0171600D03*
X0366600Y0181600D03*
X0366600Y0191600D03*
X0366600Y0201600D03*
X0366600Y0211600D03*
X0366600Y0221600D03*
X0366600Y0231600D03*
X0366600Y0241600D03*
X0366600Y0251600D03*
X0366600Y0261600D03*
X0366600Y0271600D03*
X0366600Y0281600D03*
X0366600Y0291600D03*
X0356600Y0291600D03*
X0356600Y0281600D03*
X0356600Y0271600D03*
X0356600Y0261600D03*
X0356600Y0251600D03*
X0356600Y0241600D03*
X0356600Y0231600D03*
X0356600Y0221600D03*
X0356600Y0211600D03*
X0356600Y0201600D03*
X0356600Y0191600D03*
D39*
X0109100Y0255100D03*
X0109100Y0273100D03*
D40*
X0092750Y0275250D03*
X0163650Y0207750D03*
X0139100Y0200350D03*
X0166150Y0140350D03*
X0140350Y0132850D03*
X0166050Y0085350D03*
X0140250Y0079050D03*
D41*
X0340350Y0026600D03*
X0340350Y0329100D03*
X0062850Y0329100D03*
M02*
