%
M48
M72
T01C0.02362
T02C0.03150
T03C0.03200
T04C0.03937
T05C0.04000
T06C0.04016
T07C0.07874
%
T01
X30350Y51600
X41600Y51600
X50350Y51600
X57850Y51600
X57850Y42850
X75350Y49100
X62850Y64100
X68700Y79000
X76200Y79000
X83450Y79000
X80850Y88200
X80850Y93300
X74850Y93300
X74850Y88200
X68250Y88200
X68250Y93300
X61650Y93300
X61650Y88200
X55650Y88200
X55650Y93300
X55450Y103950
X61850Y103950
X68250Y103950
X74600Y104050
X74850Y98700
X80850Y98700
X80900Y104050
X87850Y104100
X87450Y98700
X87450Y93300
X87450Y88200
X93450Y88200
X93450Y93300
X93450Y98700
X94250Y104100
X100700Y104300
X107000Y104300
X101250Y82800
X101250Y77400
X93450Y82800
X114150Y55450
X121700Y55600
X133500Y51150
X134300Y56700
X132150Y45500
X129240Y40688
X124100Y31600
X132850Y31484
X135000Y21300
X129500Y21400
X123400Y21300
X152400Y21300
X158600Y21300
X154725Y30975
X201600Y30350
X212750Y28000
X212750Y33000
X217750Y33000
X222750Y33000
X227750Y33000
X227750Y28000
X222750Y28000
X217750Y28000
X224100Y54100
X244100Y67850
X258962Y58231
X266600Y67850
X270350Y62850
X276600Y76600
X261600Y81600
X256600Y87850
X251600Y84100
X259100Y101550
X251600Y102850
X251600Y110350
X259100Y110350
X257850Y122850
X257850Y129100
X249100Y129100
X249100Y122850
X266600Y122850
X266600Y129100
X266900Y140100
X266800Y146550
X273950Y146450
X274200Y140300
X274100Y152800
X256950Y154050
X256840Y164100
X251457Y168194
X252850Y175350
X261975Y181225
X254100Y186600
X255350Y196600
X246600Y196600
X234100Y192850
X229100Y196600
X221600Y199100
X221600Y192850
X210350Y199100
X210350Y205350
X221600Y205350
X224100Y211600
X230350Y211600
X249100Y211600
X256600Y211600
X264100Y211600
X274100Y211600
X274100Y219100
X281600Y219100
X281600Y211600
X294100Y204100
X297850Y199100
X294100Y192850
X301600Y192850
X317850Y197800
X332850Y199100
X332850Y192850
X339100Y194100
X339100Y201600
X346600Y201600
X339100Y210350
X339100Y216600
X334100Y221600
X337600Y247200
X337350Y260450
X337350Y265900
X331100Y266050
X331200Y260400
X315350Y266400
X306600Y261600
X299100Y261600
X291600Y261600
X291600Y269100
X284100Y269100
X284100Y261600
X276600Y261600
X276600Y269100
X269100Y269100
X269100Y261600
X261600Y261600
X261600Y269100
X254100Y269100
X254100Y261600
X246600Y261600
X246600Y269100
X239100Y268800
X239100Y261600
X229100Y262700
X228900Y257550
X223900Y257550
X218900Y257550
X219100Y262700
X224100Y262700
X224200Y267750
X219200Y267750
X219200Y272750
X221600Y279100
X209200Y272750
X209200Y267750
X204300Y267750
X199100Y267750
X199100Y262700
X204100Y262700
X209100Y262700
X208900Y257550
X203900Y257550
X198900Y257550
X222500Y231550
X229500Y231650
X242301Y233399
X248840Y232150
X244100Y241600
X254850Y248600
X263969Y246625
X245350Y252850
X269100Y279100
X269100Y286600
X276600Y286600
X276600Y279100
X284100Y281600
X297700Y298900
X306600Y280350
X333475Y290975
X336600Y285350
X337850Y279100
X331200Y309000
X338850Y319900
X346600Y322200
X331550Y325500
X332350Y334600
X320050Y334050
X320050Y329050
X314050Y329050
X307450Y329050
X307450Y334050
X314050Y334050
X301150Y334050
X295050Y334050
X295050Y329050
X301150Y329050
X289050Y329050
X289050Y334050
X282450Y334050
X276150Y334050
X276150Y329050
X282450Y329050
X270050Y329050
X264050Y329050
X264050Y334050
X270050Y334050
X257450Y334050
X257450Y329050
X251150Y329050
X245050Y329050
X245050Y334050
X251150Y334050
X239050Y334050
X239050Y329050
X232450Y329050
X226150Y329050
X226150Y334050
X232450Y334050
X220050Y334050
X214050Y334050
X214050Y329050
X220050Y329050
X207450Y329050
X207450Y334050
X201150Y334050
X195050Y334050
X195050Y329050
X201150Y329050
X189050Y329050
X189050Y334050
X182450Y334050
X176150Y334050
X176150Y329050
X182450Y329050
X182000Y321600
X176400Y321800
X176600Y315350
X182000Y315350
X187650Y315350
X187650Y321600
X170050Y329050
X164050Y329050
X164050Y334050
X170050Y334050
X157450Y334050
X157450Y329050
X151150Y329050
X145050Y329050
X145050Y334050
X151150Y334050
X139050Y334050
X132450Y334050
X132450Y329050
X139050Y329050
X126150Y329050
X126150Y334050
X124700Y314300
X124700Y309400
X124700Y304700
X124700Y299900
X125500Y290200
X130500Y290200
X135600Y290300
X148600Y306000
X127750Y263050
X135100Y260800
X146150Y256750
X151350Y256750
X119350Y253050
X113950Y253050
X113950Y248050
X119350Y248050
X107950Y248050
X101950Y248050
X101950Y253050
X107950Y253050
X94100Y253050
X93350Y259450
X86750Y257750
X78050Y257750
X76750Y248250
X82850Y248550
X89350Y248650
X94650Y247350
X76450Y237200
X76450Y231800
X71050Y231800
X71050Y237200
X65050Y237200
X65050Y231800
X59150Y231800
X59150Y237200
X57850Y245350
X57850Y250250
X57850Y255350
X57850Y260350
X62850Y255350
X62850Y250350
X62850Y245350
X65050Y226400
X65050Y221000
X59150Y226400
X71050Y226400
X116400Y205850
X122000Y205950
X127800Y205850
X127800Y199250
X122400Y199250
X117000Y199250
X116600Y174100
X122000Y174100
X127400Y174100
X127400Y167850
X122000Y167850
X116600Y167850
X116600Y162250
X122000Y162250
X127400Y162250
X127400Y156850
X122000Y156850
X116600Y156850
X107300Y159400
X107300Y164800
X101900Y159400
X101900Y154000
X107300Y154000
X95900Y154000
X89300Y146800
X89300Y140800
X83400Y140700
X83400Y134700
X83400Y129300
X89400Y129300
X95900Y129400
X95900Y134800
X89300Y134800
X101900Y134800
X101900Y129400
X66800Y142300
X54200Y142200
X53500Y162200
X67000Y162200
X66900Y183500
X54166Y183400
X53500Y122000
X101100Y52200
X146465Y92154
X150554Y96748
X180590Y86500
X189000Y88500
X197850Y84700
X201600Y78500
X205350Y84700
X189850Y99850
X221600Y79100
X227850Y84100
X231600Y89100
X232850Y98450
X231600Y116600
X216600Y135200
X232050Y139900
X233800Y146400
X246050Y145600
X246050Y140150
X252800Y140100
X260050Y140200
X231300Y164250
X225600Y164250
X190050Y155750
X189300Y144100
X180580Y141840
X152382Y151600
X146625Y147080
X178910Y208700
X186500Y211200
X186950Y217600
X147980Y219063
X144272Y214764
X94700Y267800
X66200Y296050
X66600Y302850
X66600Y310350
X59100Y310350
X59100Y302850
X59100Y295350
X59000Y289450
X51800Y289450
X51600Y295350
X51600Y302850
X51600Y310350
X44100Y310350
X44100Y302850
X44100Y295350
X36600Y295350
X36600Y302850
X36600Y310350
X29100Y310350
X29100Y302850
X29100Y295350
X29100Y287850
X60350Y275350
X59100Y269100
X56250Y322500
X70050Y323100
X70050Y335100
X239408Y320350
X239444Y309100
X239100Y301600
X244100Y297850
X244100Y281600
X259100Y281600
X258940Y314100
X251600Y315350
X304200Y231600
X309100Y214100
X281600Y196600
X274100Y196600
X265350Y196600
X272530Y180350
X305300Y156400
X316600Y166600
X332700Y161700
X341600Y162000
X338383Y151590
X339100Y144100
X339100Y136600
X340300Y129250
X339900Y121850
X334500Y121750
X323100Y125850
X308600Y120250
X301600Y119100
X291600Y114100
X309100Y96600
X302850Y86000
X304050Y79750
X304050Y74100
X298900Y74150
X312850Y69100
X319100Y76600
X327813Y58679
X339900Y35950
X333700Y33550
X331100Y27550
X332500Y21150
X346500Y33900
X353650Y49050
X359950Y49050
X359950Y55250
X353650Y55250
X353650Y61450
X359950Y61450
X359950Y67650
X353650Y67650
X350350Y74100
X349100Y79700
X345350Y85350
X332400Y98100
X345000Y100300
X372500Y73200
X372550Y67650
X366550Y67650
X366550Y61450
X372550Y61450
X372550Y55250
X366550Y55250
X366550Y49050
X372550Y49050
X304100Y46600
X304100Y35350
X286600Y30350
X277600Y28900
X274100Y22850
X265350Y20350
X261600Y37850
X286600Y50350
X285200Y94400
X291600Y134100
X291600Y141600
X291600Y147850
X334325Y178075
T02
X186600Y34100
X186600Y24100
X176600Y24100
X176600Y34100
X166600Y34100
X166600Y24100
X140250Y79050
X166050Y85350
X140350Y132850
X166150Y140350
X139100Y200350
X163650Y207750
X92750Y275250
T03
X296600Y49850
X296600Y30850
T04
X292200Y76600
X223000Y145100
X201600Y169100
X201600Y184100
X229100Y204100
X199100Y236600
X205350Y250350
X226600Y274100
X194800Y319100
X161600Y299100
X41600Y181600
X31600Y181600
X31600Y171600
X31600Y161600
X41600Y161600
X41600Y171600
X41600Y151600
X31600Y151600
X31600Y141600
X41600Y141600
X41600Y131600
X31600Y131600
X31600Y121600
X41600Y121600
X41600Y111600
X31600Y111600
X31600Y101600
X31600Y91600
X41600Y91600
X41600Y101600
X41600Y81600
X31600Y81600
X31600Y71600
X41600Y71600
X41600Y61600
X31600Y61600
X76600Y34100
X76600Y24100
X201600Y114100
T05
X111600Y64100
X101600Y64100
X91600Y64100
X81600Y64100
X71600Y64100
X356600Y101600
X356600Y111600
X356600Y121600
X356600Y131600
X356600Y141600
X356600Y151600
X356600Y161600
X356600Y171600
X356600Y181600
X356600Y191600
X356600Y201600
X356600Y211600
X356600Y221600
X356600Y231600
X356600Y241600
X356600Y251600
X356600Y261600
X356600Y271600
X356600Y281600
X356600Y291600
X366600Y291600
X366600Y281600
X366600Y271600
X366600Y261600
X366600Y251600
X366600Y241600
X366600Y231600
X366600Y221600
X366600Y211600
X366600Y201600
X366600Y191600
X366600Y181600
X366600Y171600
X366600Y161600
X366600Y151600
X366600Y141600
X366600Y131600
X366600Y121600
X366600Y111600
X366600Y101600
T06
X144100Y54100
X144100Y44100
X144100Y34100
X144100Y24100
X66600Y24100
X66600Y34100
X66600Y44100
X66600Y54100
T07
X340350Y26600
X340350Y329100
X62850Y329100
M30
